<svg width="121" height="124" viewBox="0 0 121 124" fill="none" xmlns="http://www.w3.org/2000/svg">
<path d="M120.574 18.9678L19.6104 0L1.07891e-06 104.384L100.964 123.352L120.574 18.9678Z" fill="#E6DDCB"/>
<path d="M90.7301 39.7486L40.9608 30.3986C37.9211 29.8275 34.9945 31.8265 34.424 34.8634C33.8534 37.9003 35.855 40.8252 38.8947 41.3962L88.664 50.7462C91.7036 51.3173 94.6302 49.3183 95.2007 46.2814C95.7713 43.2445 93.7697 40.3197 90.7301 39.7486Z" fill="white"/>
<path d="M86.733 61.0065L36.9637 51.6564C33.9241 51.0854 30.9974 53.0843 30.4269 56.1212C29.8564 59.1581 31.858 62.083 34.8976 62.654L84.6669 72.0041C87.7065 72.5751 90.6332 70.5761 91.2037 67.5392C91.7742 64.5023 89.7726 61.5775 86.733 61.0065Z" fill="white"/>
<path d="M82.7447 82.274L32.9754 72.924C29.9358 72.3529 27.0092 74.3519 26.4386 77.3888C25.8681 80.4257 27.8697 83.3505 30.9093 83.9216L80.6786 93.2716C83.7182 93.8427 86.6449 91.8437 87.2154 88.8068C87.7859 85.7699 85.7843 82.8451 82.7447 82.274Z" fill="white"/>
</svg>
