<svg width="140" height="144" viewBox="0 0 140 144" fill="none" xmlns="http://www.w3.org/2000/svg">
<path d="M121.726 2.77934e-05L0 17.5193L18.1119 143.363L139.838 125.843L121.726 2.77934e-05Z" fill="#B8E6FB"/>
<path d="M98.473 31.0378L31.0477 40.7419C26.6964 41.3682 23.6766 45.4033 24.3029 49.7547L24.3043 49.7646C24.9306 54.1159 28.9657 57.1357 33.317 56.5094L100.742 46.8053C105.094 46.1791 108.113 42.1439 107.487 37.7925L107.486 37.7827C106.859 33.4313 102.824 30.4115 98.473 31.0378Z" fill="white"/>
<path d="M102.869 61.5115L35.4433 71.2157C31.0919 71.8419 28.0721 75.8771 28.6984 80.2284L28.6998 80.2383C29.3261 84.5897 33.3613 87.6095 37.7126 86.9832L105.138 77.2791C109.489 76.6528 112.509 72.6177 111.883 68.2663L111.881 68.2564C111.255 63.9051 107.22 60.8853 102.869 61.5115Z" fill="white"/>
<path d="M107.245 91.9769L39.8193 101.681C35.4679 102.307 32.4481 106.342 33.0744 110.694L33.0758 110.704C33.7021 115.055 37.7372 118.075 42.0886 117.449L109.514 107.744C113.865 107.118 116.885 103.083 116.259 98.7316L116.257 98.7217C115.631 94.3704 111.596 91.3506 107.245 91.9769Z" fill="white"/>
</svg>
