<svg width="155" height="157" viewBox="0 0 155 157" fill="none" xmlns="http://www.w3.org/2000/svg">
<path d="M113.381 5.65404e-05L0 39.3948L40.7305 156.62L154.112 117.226L113.381 5.65404e-05Z" fill="#FCDF90"/>
<path d="M102.158 39.023L35.658 62.1288C32.7365 63.1439 31.1903 66.333 32.2045 69.2518C33.2186 72.1707 36.4091 73.7141 39.3306 72.699L105.831 49.5932C108.752 48.5781 110.298 45.389 109.284 42.4701C108.27 39.5513 105.08 38.008 102.158 39.023Z" fill="white"/>
<path d="M109.253 59.4607L42.7527 82.5665C39.8312 83.5815 38.285 86.7706 39.2992 89.6895C40.3134 92.6083 43.5038 94.1517 46.4253 93.1366L112.926 70.0308C115.847 69.0157 117.393 65.8266 116.379 62.9077C115.365 59.9889 112.174 58.4456 109.253 59.4607Z" fill="white"/>
<path d="M116.358 79.9081L49.8582 103.014C46.9367 104.029 45.3905 107.218 46.4047 110.137C47.4188 113.056 50.6093 114.599 53.5308 113.584L120.031 90.4782C122.953 89.4631 124.499 86.274 123.484 83.3551C122.47 80.4363 119.28 78.893 116.358 79.9081Z" fill="white"/>
</svg>
