<svg width="64" height="64" viewBox="0 0 64 64" fill="none" xmlns="http://www.w3.org/2000/svg">
<rect width="64" height="64" rx="12" fill="white"/>
<g clip-path="url(#clip0_154_1438)">
<mask id="mask0_154_1438" style="mask-type:luminance" maskUnits="userSpaceOnUse" x="12" y="12" width="41" height="40">
<path d="M53 12H12V52H53V12Z" fill="white"/>
</mask>
<g mask="url(#mask0_154_1438)">
<path d="M29.3369 40.9103C24.0517 40.2723 20.3281 36.484 20.3281 31.5793C20.3281 29.5855 21.0488 27.4321 22.25 25.9966C21.7295 24.6807 21.8096 21.8893 22.4102 20.7329C24.0117 20.5335 26.1738 21.3709 27.4551 22.5273C28.9766 22.0488 30.5781 21.8096 32.54 21.8096C34.502 21.8096 36.1035 22.0488 37.5449 22.4875C38.7861 21.3709 40.9883 20.5335 42.5899 20.7329C43.1504 21.8096 43.2305 24.6009 42.71 25.9567C43.9912 27.472 44.6719 29.5057 44.6719 31.5793C44.6719 36.484 40.9483 40.1925 35.583 40.8705C36.9443 41.7477 37.8652 43.6618 37.8652 45.855V50.0021C37.8652 51.1984 38.8662 51.8763 40.0674 51.3978C47.3145 48.6463 53 41.4287 53 32.4964C53 21.2114 43.791 12 32.46 12C21.1289 12 12 21.2114 12 32.4964C12 41.349 17.6455 48.6862 25.2529 51.4377C26.334 51.8364 27.375 51.1187 27.375 50.042V46.8519C26.8145 47.0912 26.0938 47.2507 25.4531 47.2507C22.8105 47.2507 21.249 45.8151 20.1279 43.1434C19.6875 42.0668 19.207 41.4287 18.2861 41.3091C17.8057 41.2692 17.6455 41.0698 17.6455 40.8306C17.6455 40.352 18.4463 39.9932 19.2471 39.9932C20.4082 39.9932 21.4092 40.711 22.4502 42.1864C23.251 43.3428 24.0918 43.8612 25.0928 43.8612C26.0938 43.8612 26.7344 43.5023 27.6553 42.5851C28.3359 41.9072 28.8564 41.3091 29.3369 40.9103Z" fill="black"/>
</g>
</g>
<defs>
<clipPath id="clip0_154_1438">
<rect width="41" height="40" fill="white" transform="translate(12 12)"/>
</clipPath>
</defs>
</svg>
