<svg width="24" height="24" viewBox="0 0 24 24" fill="none" xmlns="http://www.w3.org/2000/svg">
<path d="M20.6429 2H4.3529C3.60647 2 3 2.61496 3 3.36987V19.6301C3 20.385 3.60647 21 4.3529 21H20.6429C21.3893 21 22 20.385 22 19.6301V3.36987C22 2.61496 21.3893 2 20.6429 2ZM8.74241 18.2857H5.92634V9.2183H8.74665V18.2857H8.74241ZM7.33437 4.71429C8.23772 4.71429 8.96719 5.44375 8.96719 6.3471C8.96719 7.25045 8.23772 7.97991 7.33437 7.97991C6.43103 7.97991 5.70156 7.25045 5.70156 6.3471C5.70156 5.44375 6.43103 4.71429 7.33437 4.71429ZM19.2984 18.2857H16.4824V13.875C16.4824 12.8232 16.4612 11.4703 15.0192 11.4703C13.5518 11.4703 13.327 12.6154 13.327 13.7987V18.2857H10.5109V9.2183H13.2125V10.4567H13.2507C13.6281 9.7442 14.5484 8.99353 15.9183 8.99353C18.7683 8.99353 19.2984 10.8723 19.2984 13.3152V18.2857Z" fill="black"/>
</svg>
