<svg width="174" height="174" viewBox="0 0 174 174" fill="none" xmlns="http://www.w3.org/2000/svg">
<path d="M145.821 150.388C142.757 153.674 138.176 152.172 135.081 150.674C125.806 146.241 119.853 138.358 113.139 130.142C117.043 139.495 121.346 148.316 121.241 158.54C121.202 162.335 120.107 167.145 116.207 168.396C112.737 169.491 108.979 166.589 106.646 163.938C100.514 156.984 98.5971 148.756 94.9421 139.702C93.7421 151.863 95.6672 160.491 88.3341 170.944C87.4695 172.167 84.6496 173.554 83.2883 173.556C81.9269 173.558 79.2754 172.204 78.3939 170.928C71.6734 161.138 73.9429 147.925 74.3879 137.629C70.8696 146.216 61.1454 168.652 50.761 165.619C46.913 164.499 45.9806 159.487 46.2376 155.852C46.8941 146.152 51.388 138.108 55.8253 129.35C46.1992 137.091 40.5327 145.682 27.8116 147.304C26.4416 147.505 23.6666 146.408 22.7819 145.495C21.8972 144.581 21.1118 141.949 21.3509 140.461C23.2403 128.53 33.9646 121.674 42.4211 113.544C33.0368 117.424 24.2183 121.504 14.021 121.077C10.119 120.916 5.29529 119.254 4.94078 114.742C4.16535 104.654 26.175 97.6114 34.479 94.7449C26.3032 94.3574 19.0997 94.5876 11.5305 92.5909C7.27051 91.4653 -0.139782 88.1019 0.00191613 82.8002C0.162932 76.7625 10.7854 73.9988 16.6718 73.6103C23.1718 73.1866 29.0628 73.8474 35.692 74.1913L25.5261 69.5692C19.0719 66.6228 6.33747 58.727 7.52239 51.2485C7.77885 49.6487 10.4889 46.759 12.2241 46.4862C25.0036 44.3801 34.8666 51.3867 45.4704 56.2781C38.7793 50.7234 20.9683 31.6994 27.4846 23.3832C30.1815 19.9308 34.9607 21.1793 38.3276 22.7399C47.4247 26.9524 53.1593 34.7003 59.7665 42.1995C56.0776 32.4817 51.9264 24.217 52.3227 14.468C52.4637 10.6275 53.4488 5.75044 57.7917 4.95633C68.5292 2.99698 76.0759 26.6116 78.8582 34.7656C78.9836 24.9296 78.6409 15.8097 82.5319 6.97742C84.0679 3.51106 86.8308 -0.600324 91.0353 0.0731759C94.8421 0.704059 97.1866 5.11681 98.2768 8.78704C100.873 17.4948 99.687 25.86 99.3535 35.3121C102.8 27.222 112.364 5.02787 122.449 7.76055C126.498 8.86425 127.488 13.4168 127.351 17.1575C126.923 27.3423 121.989 35.7412 117.426 44.8059C126.5 36.8528 133.287 27.7618 145.481 26.1918C146.938 26.0066 149.39 26.7772 150.329 27.5932C151.388 28.5144 152.567 31.5766 152.291 33.0506C149.851 45.5816 138.562 53.3615 129.069 61.196C138.338 56.8235 147.589 52.5627 158.039 52.3266C162.09 52.2314 167.487 53.345 168.527 57.8748C169.453 61.8874 165.478 66.0075 162.252 68.4123C155.027 73.7621 146.985 75.766 138.397 78.8697C147.691 79.0945 156.202 78.6475 164.796 81.7887C168.46 83.1251 172.999 85.8867 173.481 89.7548C174.031 94.0879 169.571 96.7128 165.959 97.939C156.846 101.044 147.848 99.7337 138.053 99.2495C149.321 104.945 157.597 106.486 165.175 117.525C165.998 118.71 166.232 121.681 165.828 122.937C165.38 124.353 162.923 126.58 161.275 126.869C148.675 129.145 138.964 122.095 128.339 117.39C134.711 122.544 153.142 142.532 145.846 150.389L145.821 150.388Z" fill="#B0DDF8"/>
</svg>
