<svg width="115" height="119" viewBox="0 0 115 119" fill="none" xmlns="http://www.w3.org/2000/svg">
<path d="M63.1945 114.845C61.8745 116.955 60.0345 118.265 57.7545 118.405C55.5945 118.535 53.2545 117.305 51.9945 115.285L46.2645 106.135C44.8745 103.915 41.7845 102.415 39.0645 103.495L28.4445 107.695C26.3145 108.535 24.0645 108.385 22.2045 107.145C20.3445 105.905 19.3545 103.535 19.5645 101.025L20.3545 91.3749C20.6245 88.0449 18.9345 85.0049 15.5745 84.1849L4.43452 81.4649C2.33452 80.9549 0.624516 78.8649 0.174516 77.0249C-0.355484 74.8549 0.464516 72.7349 1.93452 71.0249L8.79452 62.9949C10.5045 60.9949 10.6745 57.5949 8.92452 55.5449L1.62452 46.9749C0.304516 45.4249 -0.355484 43.0749 0.194516 41.2449C0.804516 39.2049 2.55452 37.3649 4.77452 36.8149L15.6445 34.1449C18.7845 33.3749 20.5945 30.5349 20.3545 27.3349L19.5545 16.9949C19.4145 15.1549 20.2345 12.8349 21.4145 11.7849C22.7745 10.5649 25.6245 9.62495 27.4245 10.3249L38.6245 14.7049C41.2245 15.7249 44.5645 14.8549 46.0845 12.4249L51.8345 3.27494C52.8745 1.62494 54.7145 0.274944 56.3045 0.0649438C58.4045 -0.215056 61.1145 0.394944 62.2545 2.19494L68.4445 11.8949C70.1445 14.5549 73.0445 15.9449 76.2545 14.6849L87.2345 10.3949C89.3045 9.58494 92.1145 10.4249 93.5745 11.9149C94.9645 13.3349 95.4845 15.6049 95.2945 17.8549L94.5045 27.3049C94.2245 30.6249 96.2645 33.4349 99.4645 34.2049L109.975 36.7449C112.075 37.2549 113.895 38.8849 114.505 40.5449C115.355 42.8849 114.755 45.2749 113.195 47.0749L106.605 54.6949C104.465 57.1749 104.025 60.5049 106.275 63.1549L113.345 71.4849C114.625 72.9949 115.225 75.2449 114.695 77.1849C114.275 78.7349 112.515 80.9349 110.635 81.4049L99.2645 84.2349C96.3145 84.9749 94.2545 87.7449 94.5145 90.8149L95.2945 100.265C95.5045 102.835 94.9945 105.315 93.1245 106.785C91.0845 108.395 88.6845 108.565 86.2145 107.595L75.6445 103.415C73.3245 102.495 70.0545 103.915 68.8045 105.905L63.1945 114.835V114.845Z" fill="#FACC61"/>
</svg>
