<svg width="64" height="64" viewBox="0 0 64 64" fill="none" xmlns="http://www.w3.org/2000/svg">
<g clip-path="url(#clip0_154_1334)">
<path d="M53.0586 0H10.9414C4.89865 0 0 4.89865 0 10.9414V53.0586C0 59.1014 4.89865 64 10.9414 64H53.0586C59.1014 64 64 59.1014 64 53.0586V10.9414C64 4.89865 59.1014 0 53.0586 0Z" fill="#330000"/>
<path d="M31.2599 16.9346H21.6829L10.6826 46.5333H19.2535L20.682 42.1122H31.6849L33.1133 46.5333H41.9453L31.2625 16.9346H31.2599ZM26.1809 34.7266H23.0653L26.1809 25.0779L29.2964 34.7266H26.1809Z" fill="#FF9A00"/>
<path d="M50.9699 23.2295H43.0391V46.5332H50.9699V23.2295Z" fill="#FF9A00"/>
<path d="M51.2305 19.0158C51.2535 21.1893 49.4948 22.7253 47.0065 22.7048C44.5156 22.7253 42.7594 21.1893 42.7825 19.0158C42.7594 16.8424 44.5181 15.3064 47.0065 15.3269C49.4973 15.3064 51.2535 16.8424 51.2305 19.0158Z" fill="#FF9A00"/>
</g>
<defs>
<clipPath id="clip0_154_1334">
<rect width="64" height="64" fill="white"/>
</clipPath>
</defs>
</svg>
