<svg width="64" height="64" viewBox="0 0 64 64" fill="none" xmlns="http://www.w3.org/2000/svg">
<rect width="64" height="64" rx="12" fill="white"/>
<g clip-path="url(#clip0_154_1411)">
<path d="M27.3418 26.6088V22.8427C27.3418 22.5255 27.4608 22.2875 27.7382 22.1291L35.3102 17.7684C36.341 17.1738 37.57 16.8964 38.8383 16.8964C43.5955 16.8964 46.6085 20.5833 46.6085 24.5078C46.6085 24.7852 46.6085 25.1024 46.5687 25.4196L38.7193 20.8209C38.2437 20.5435 37.7678 20.5435 37.2922 20.8209L27.3418 26.6088ZM45.0225 41.2767V32.2776C45.0225 31.7224 44.7847 31.3261 44.309 31.0486L34.3587 25.2608L37.6093 23.3975C37.8868 23.239 38.1248 23.239 38.4022 23.3975L45.9742 27.7581C48.1547 29.0269 49.6213 31.7224 49.6213 34.3387C49.6213 37.3516 47.8375 40.1269 45.0225 41.2767ZM25.0029 33.3482L21.7522 31.4454C21.4748 31.2871 21.3558 31.0491 21.3558 30.7319V22.0105C21.3558 17.7688 24.6065 14.5575 29.007 14.5575C30.6722 14.5575 32.2178 15.1126 33.5265 16.1036L25.7168 20.6231C25.2412 20.9005 25.0033 21.2969 25.0033 21.8521L25.0029 33.3482ZM32 37.3917L27.3418 34.7754V29.2254L32 26.6091L36.6578 29.2254V34.7754L32 37.3917ZM34.993 49.4434C33.3278 49.4434 31.7822 48.8882 30.4735 47.8972L38.2832 43.3777C38.7588 43.1004 38.9967 42.7039 38.9967 42.1487V30.6522L42.2872 32.5551C42.5647 32.7134 42.6837 32.9514 42.6837 33.2686V41.9901C42.6837 46.2317 39.3932 49.4434 34.993 49.4434ZM25.5975 40.6031L18.0255 36.2422C15.8449 34.9736 14.3784 32.2781 14.3784 29.6617C14.3784 26.6091 16.2019 23.8738 19.0164 22.724V31.7626C19.0164 32.3177 19.2544 32.7142 19.73 32.9916L29.641 38.7396L26.3902 40.6031C26.1128 40.7614 25.8749 40.7614 25.5975 40.6031ZM25.1617 47.1044C20.682 47.1044 17.3915 43.7347 17.3915 39.5722C17.3915 39.2551 17.4312 38.9379 17.4707 38.6207L25.2803 43.1401C25.7559 43.4176 26.2318 43.4176 26.7074 43.1401L36.6578 37.3921V41.1582C36.6578 41.4754 36.5388 41.7134 36.2613 41.8717L28.6893 46.2324C27.6586 46.8271 26.43 47.1044 25.1617 47.1044ZM34.993 51.8217C39.7898 51.8217 43.7937 48.4126 44.7058 43.8931C49.1457 42.7434 52 38.5809 52 34.3392C52 31.5641 50.8108 28.8686 48.67 26.9259C48.8683 26.0934 48.9873 25.2608 48.9873 24.4286C48.9873 18.7597 44.3885 14.5177 39.0763 14.5177C38.0062 14.5177 36.9753 14.6761 35.9447 15.033C34.1605 13.2887 31.7025 12.1787 29.007 12.1787C24.2101 12.1787 20.2064 15.5878 19.2942 20.1073C14.8543 21.2571 12 25.4196 12 29.6612C12 32.4364 13.1892 35.1319 15.3299 37.0746C15.1317 37.9071 15.0127 38.7396 15.0127 39.5719C15.0127 45.2407 19.6114 49.4827 24.9237 49.4827C25.9939 49.4827 27.0246 49.3244 28.0554 48.9674C29.8392 50.7117 32.2972 51.8217 34.993 51.8217Z" fill="black"/>
</g>
<defs>
<clipPath id="clip0_154_1411">
<rect width="40" height="40" fill="white" transform="translate(12 12)"/>
</clipPath>
</defs>
</svg>
