<svg width="64" height="64" viewBox="0 0 64 64" fill="none" xmlns="http://www.w3.org/2000/svg">
<rect width="64" height="64" rx="12" fill="black"/>
<g clip-path="url(#clip0_1_281)">
<path d="M25.7513 52.0002C29.4766 52.0002 32.5 48.9388 32.5 45.1668V38.3335H25.7513C22.0261 38.3335 19.0027 41.3948 19.0027 45.1668C19.0027 48.9388 22.0261 52.0002 25.7513 52.0002Z" fill="#0ACF83"/>
<path d="M19.0027 31.4998C19.0027 27.7278 22.0261 24.6665 25.7513 24.6665H32.5V38.3332H25.7513C22.0261 38.3332 19.0027 35.2718 19.0027 31.4998Z" fill="#A259FF"/>
<path d="M19.0027 17.8333C19.0027 14.0613 22.0261 11 25.7513 11H32.5V24.6667H25.7513C22.0261 24.6667 19.0027 21.6053 19.0027 17.8333Z" fill="#F24E1E"/>
<path d="M32.5 11H39.2487C42.9739 11 45.9973 14.0613 45.9973 17.8333C45.9973 21.6053 42.9739 24.6667 39.2487 24.6667H32.5V11Z" fill="#FF7262"/>
<path d="M45.9973 31.4998C45.9973 35.2718 42.9739 38.3332 39.2487 38.3332C35.5234 38.3332 32.5 35.2718 32.5 31.4998C32.5 27.7278 35.5234 24.6665 39.2487 24.6665C42.9739 24.6665 45.9973 27.7278 45.9973 31.4998Z" fill="#1ABCFE"/>
</g>
<defs>
<clipPath id="clip0_1_281">
<rect width="27" height="41" fill="white" transform="translate(19 11)"/>
</clipPath>
</defs>
</svg>
