<svg width="64" height="64" viewBox="0 0 64 64" fill="none" xmlns="http://www.w3.org/2000/svg">
<g clip-path="url(#clip0_154_1345)">
<path d="M11.3333 0H52.6667C58.9333 0 64 5.19658 64 11.6239V52.3761C64 58.8034 58.9333 64 52.6667 64H11.3333C5.06667 64 0 58.8034 0 52.3761V11.6239C0 5.19658 5.06667 0 11.3333 0Z" fill="#49021F"/>
<path d="M23.2533 16.7381V44.9091C23.2533 45.2099 23.12 45.3467 22.88 45.3467H17.6533C17.4133 45.3467 17.3066 45.2099 17.3066 44.9091V16.7381C17.3066 16.492 17.44 16.3826 17.68 16.3826H22.88C23.04 16.3552 23.2 16.4646 23.2266 16.6561C23.2533 16.6834 23.2533 16.7108 23.2533 16.7381Z" fill="#FF3366"/>
<path d="M38.6671 45.6751C36.6938 45.7024 34.7205 45.2922 32.9338 44.4443C31.2538 43.6511 29.8671 42.3383 28.9071 40.7246C27.9205 39.0563 27.4405 36.9776 27.4405 34.4887C27.4138 32.4648 27.9205 30.4682 28.9071 28.7178C29.9205 26.94 31.3871 25.4631 33.1471 24.4785C35.0138 23.4118 37.2538 22.8922 39.8938 22.8922C40.0271 22.8922 40.2138 22.8922 40.4538 22.9195C40.6938 22.9469 40.9605 22.9469 41.2805 22.9742V14.3315C41.2805 14.14 41.3605 14.0306 41.5471 14.0306H46.9605C47.0938 14.0033 47.2005 14.1127 47.2271 14.2221V14.2768V40.3144C47.2271 40.8067 47.2538 41.3537 47.2805 41.9554C47.3338 42.5298 47.3605 43.0768 47.3871 43.5417C47.3871 43.7332 47.3071 43.8973 47.1205 43.9793C45.7338 44.581 44.2671 45.0187 42.7738 45.2922C41.4405 45.5383 40.0538 45.6751 38.6671 45.6751ZM41.2805 40.205V28.1708C41.0405 28.1161 40.8005 28.0614 40.5605 28.034C40.2671 28.0067 39.9738 27.9793 39.6805 27.9793C38.6405 27.9793 37.6005 28.1981 36.6671 28.6904C35.7605 29.1554 34.9871 29.8392 34.4005 30.7144C33.8138 31.5896 33.5205 32.7657 33.5205 34.1879C33.4938 35.1451 33.6538 36.1024 33.9738 37.005C34.2405 37.7434 34.6405 38.3998 35.1738 38.9469C35.6805 39.4392 36.2938 39.8221 36.9871 40.0409C37.7071 40.287 38.4538 40.3964 39.2005 40.3964C39.6005 40.3964 39.9738 40.3691 40.3205 40.3417C40.6671 40.3691 40.9871 40.3144 41.2805 40.205Z" fill="#FF3366"/>
</g>
<defs>
<clipPath id="clip0_154_1345">
<rect width="64" height="64" fill="white"/>
</clipPath>
</defs>
</svg>
