<svg width="64" height="64" viewBox="0 0 64 64" fill="none" xmlns="http://www.w3.org/2000/svg">
<path d="M11.3333 0H52.6667C58.9333 0 64 5.19658 64 11.6239V52.3761C64 58.8034 58.9333 64 52.6667 64H11.3333C5.06667 64 0 58.8034 0 52.3761V11.6239C0 5.19658 5.06667 0 11.3333 0Z" fill="#001E36"/>
<path d="M14.4004 44.882V16.7384C14.4004 16.5469 14.4804 16.4375 14.6671 16.4375C15.1204 16.4375 15.5471 16.4375 16.1604 16.4102C16.8004 16.3828 17.4671 16.3828 18.1871 16.3555C18.9071 16.3281 19.6804 16.3281 20.5071 16.3008C21.3337 16.2734 22.1337 16.2734 22.9337 16.2734C25.1204 16.2734 26.9337 16.5469 28.4271 17.1213C29.7604 17.5863 30.9871 18.3521 32.0004 19.364C32.8537 20.2393 33.5204 21.3059 33.9471 22.482C34.3471 23.6307 34.5604 24.8068 34.5604 26.0375C34.5604 28.3897 34.0271 30.3316 32.9604 31.8632C31.8937 33.3948 30.4004 34.5435 28.6671 35.1999C26.8537 35.8837 24.8537 36.1298 22.6671 36.1298C22.0271 36.1298 21.6004 36.1298 21.3337 36.1025C21.0671 36.0751 20.6937 36.0751 20.1871 36.0751V44.8546C20.2137 45.0461 20.0804 45.2102 19.8937 45.2375C19.8671 45.2375 19.8404 45.2375 19.7871 45.2375H14.7204C14.5071 45.2375 14.4004 45.1281 14.4004 44.882ZM20.2137 21.7162V30.9059C20.5871 30.9333 20.9337 30.9606 21.2537 30.9606H22.6671C23.7071 30.9606 24.7471 30.7965 25.7337 30.4683C26.5871 30.2222 27.3337 29.7025 27.9204 29.0187C28.4804 28.335 28.7471 27.4051 28.7471 26.2016C28.7737 25.3538 28.5604 24.5059 28.1337 23.7675C27.6804 23.0563 27.0404 22.5093 26.2671 22.2085C25.2804 21.7982 24.2137 21.6341 23.1204 21.6615C22.4271 21.6615 21.8137 21.6615 21.3071 21.6888C20.7737 21.6615 20.4004 21.6888 20.2137 21.7162Z" fill="#31A8FF"/>
<path d="M51.2002 29.2373C50.4002 28.7997 49.5469 28.4989 48.6402 28.3074C47.6536 28.0886 46.6669 27.9519 45.6536 27.9519C45.1202 27.9245 44.5602 28.0066 44.0536 28.1433C43.7069 28.2254 43.4136 28.4168 43.2269 28.6903C43.0936 28.9091 43.0136 29.1826 43.0136 29.4288C43.0136 29.675 43.1202 29.9211 43.2802 30.1399C43.5202 30.4408 43.8402 30.6869 44.1869 30.8784C44.8002 31.2066 45.4402 31.5074 46.0802 31.7809C47.5202 32.2732 48.9069 32.957 50.1869 33.7775C51.0669 34.3519 51.7869 35.1177 52.2936 36.0476C52.7202 36.9228 52.9336 37.8801 52.9069 38.8647C52.9336 40.1502 52.5602 41.4356 51.8669 42.5023C51.1202 43.5963 50.0802 44.4442 48.8802 44.9365C47.5736 45.5109 45.9736 45.8117 44.0536 45.8117C42.8269 45.8117 41.6269 45.7023 40.4269 45.4562C39.4936 45.292 38.5602 44.9912 37.7069 44.5809C37.5202 44.4715 37.3869 44.2801 37.4136 44.0613V39.3023C37.4136 39.2203 37.4402 39.1109 37.5202 39.0562C37.6002 39.0015 37.6802 39.0288 37.7602 39.0835C38.8002 39.7126 39.8936 40.1502 41.0669 40.4237C42.0802 40.6972 43.1469 40.8339 44.2136 40.8339C45.2269 40.8339 45.9469 40.6972 46.4269 40.451C46.8536 40.2596 47.1469 39.7946 47.1469 39.3023C47.1469 38.9194 46.9336 38.5638 46.5069 38.2083C46.0802 37.8527 45.2002 37.4425 43.8936 36.9228C42.5336 36.4305 41.2802 35.7741 40.1069 34.9536C39.2802 34.3519 38.5869 33.5587 38.0802 32.6288C37.6536 31.7536 37.4402 30.7963 37.4669 29.8391C37.4669 28.663 37.7869 27.5416 38.3736 26.5297C39.0402 25.4356 40.0269 24.5604 41.1736 24.0134C42.4269 23.357 44.0002 23.0562 45.8936 23.0562C46.9869 23.0562 48.1069 23.1382 49.2002 23.3023C50.0002 23.4117 50.7736 23.6305 51.4936 23.9314C51.6002 23.9587 51.7069 24.0681 51.7602 24.1775C51.7869 24.2869 51.8136 24.3963 51.8136 24.5057V28.9638C51.8136 29.0732 51.7602 29.1826 51.6802 29.2373C51.4402 29.292 51.3069 29.292 51.2002 29.2373Z" fill="#31A8FF"/>
</svg>
