<svg viewBox="-329 -777 579 821" fill="none" xmlns="http://www.w3.org/2000/svg"><g transform="translate(-257.500 -763.000)"><path d="M232.651 440.01H293.315C363.691 440.01 420.833 497.042 420.833 567.283V748.577H94V578.386C94 502.016 156.125 440 232.651 440V440.01Z" fill="#F8AB1C"/>
<mask id="mask0_166_298" style="mask-type:luminance" maskUnits="userSpaceOnUse" x="94" y="440" width="327" height="323">
<path d="M232.651 440.01H293.315C363.691 440.01 420.833 497.042 420.833 567.283V762.449H94V578.386C94 502.016 156.125 440 232.651 440V440.01Z" fill="white"/>
</mask>
<g mask="url(#mask0_166_298)">
<path d="M413.553 498.423H100.602V518.073H413.553V498.423Z" fill="#F4EFE6"/>
<path d="M437.607 536.001H77.8525V555.651H437.607V536.001Z" fill="#F4EFE6"/>
<path d="M437.607 572.795H77.8525V592.446H437.607V572.795Z" fill="#F4EFE6"/>
<path d="M437.607 612.85H77.8525V632.501H437.607V612.85Z" fill="#F4EFE6"/>
<path d="M437.607 653.163H77.8525V672.814H437.607V653.163Z" fill="#F4EFE6"/>
<path d="M437.607 701.167H77.8525V720.818H437.607V701.167Z" fill="#F4EFE6"/>
<path d="M413.553 460.845H100.602V480.496H413.553V460.845Z" fill="#F4EFE6"/>
</g><g transform="translate(3.209 6.353) scale(0.98704)">
<path d="M66.9628 59.5451C66.9628 59.5451 54.3775 123.985 123.161 139.75L155.03 84.4006L66.9628 59.5451Z" fill="#428EA8"/>
<path d="M199.49 430.626L184.486 355.783C184.486 355.783 183.775 347.869 164.734 347.306C164.734 347.306 88.7623 359.926 92.3097 288.393L92.591 262.972L79.6745 248.355C75.9013 244.091 76.7716 237.483 81.5173 234.342L101.121 221.37C105.11 218.73 107.176 214.017 106.403 209.304C102.636 186.353 97.1965 117.105 160.102 83.2769C160.102 83.2769 277.633 -6.83314 393.5 138.373C393.5 138.373 450.611 298.565 304.62 334.067L323.934 464.161L213.537 451.304L199.478 430.634L199.49 430.626Z" fill="#FBCDC0"/>
<path d="M253.112 216.02C253.112 216.02 153.53 201.691 122.41 116.871C122.41 116.871 208.759 -20.0783 366.977 95.0805C392.703 113.804 410.311 154.62 403.038 224.752L398.346 458.941C398.057 473.291 387.399 485.273 373.171 487.329C334.221 492.96 256.63 495.504 195.158 443.121C184.96 434.429 181.263 420.303 185.708 407.679L253.112 216.02Z" fill="url(#paint0_linear_166_298)"/>
<path d="M233.666 268.544C253.288 272.045 272.317 257.385 276.169 235.799C280.021 214.213 267.237 193.875 247.615 190.374C227.993 186.872 208.963 201.533 205.111 223.119C201.259 244.705 214.044 265.042 233.666 268.544Z" fill="#FBCDC0"/>
<path d="M403.472 279.173C403.472 279.173 334.003 227.043 310.997 207.482C228.827 137.631 141.985 93.6792 141.985 93.6792C141.985 93.6792 194.048 6.35758 316.054 44.4004C316.054 44.4004 354.949 49.8592 395.465 92.7445C436.537 136.206 440.837 230.662 403.47 279.182L403.472 279.173Z" fill="#55A6C9"/>
<path d="M78.0519 55.6266C70.2945 55.9331 65.1484 58.5256 67.8308 61.5305C68.9681 62.8076 85.601 67.3769 88.8287 68.3308C140.897 83.729 180.47 140.111 211.374 134.845C211.374 134.845 236.025 95.264 178.188 67.7969C159.888 59.1109 102.28 54.6589 78.0616 55.6284L78.0519 55.6266Z" fill="#55A6C9"/>
<path d="M124.571 235.043L125.633 235.232C145.255 238.734 163.995 225.696 167.49 206.112L169.031 197.475C172.526 177.891 159.452 159.176 139.83 155.674L138.768 155.485C119.146 151.983 100.406 165.021 96.911 184.606L95.3698 193.242C91.875 212.826 104.949 231.541 124.571 235.043Z" stroke="#8E6036" stroke-width="9" stroke-miterlimit="10"/>
<path d="M225.964 204.432L165.884 196.963" stroke="#8E6036" stroke-width="10" stroke-miterlimit="10"/>
<path d="M233.666 268.544C253.288 272.045 272.317 257.385 276.169 235.799C280.021 214.213 267.237 193.875 247.615 190.374C227.993 186.872 208.963 201.533 205.111 223.119C201.259 244.705 214.043 265.042 233.666 268.544Z" fill="#FBCDC0"/>
<path d="M425.751 218.76C425.751 218.76 427.008 188.879 383.071 266.064L403.462 279.171C403.462 279.171 422.085 263.26 425.742 218.759L425.751 218.76Z" fill="#79C5EF"/>
<path d="M415.407 261.869C415.407 261.869 371.138 226.718 343.339 199.788L324.462 218.797C324.462 218.797 376.735 275.317 401.808 281.005L415.417 261.871L415.407 261.869Z" fill="#55A6C9"/>
<path d="M250.468 247.931C257.132 244.098 259.176 235.179 255.034 228.009C250.892 220.84 242.132 218.135 235.469 221.968C228.805 225.801 226.761 234.72 230.903 241.89C235.045 249.059 243.805 251.764 250.468 247.931Z" fill="white"/>
<path d="M252.26 241.208L250.49 238.145C249.37 236.205 246.886 235.539 244.943 236.656L219.547 251.264C217.604 252.382 216.938 254.86 218.059 256.8L219.828 259.863C220.949 261.803 223.432 262.47 225.375 261.353L250.772 246.744C252.714 245.627 253.381 243.148 252.26 241.208Z" fill="white"/>
<path d="M209.754 224.236C209.754 224.236 233.556 229.398 244.813 209.924L234.384 195.273L208.211 213.677L209.764 224.238L209.754 224.236Z" fill="#FBCDC0"/>
<path d="M124.809 212.26C134.377 213.968 143.516 207.61 145.22 198.06C146.924 188.51 140.549 179.384 130.98 177.677C121.412 175.969 112.274 182.327 110.57 191.877C108.865 201.427 115.241 210.553 124.809 212.26Z" fill="white"/>
<path d="M125.832 202.278C132.222 203.418 138.359 198.979 139.54 192.362C140.721 185.745 136.498 179.457 130.108 178.316C123.719 177.176 117.582 181.616 116.401 188.233C115.22 194.85 119.443 201.138 125.832 202.278Z" fill="#221E25"/>
<defs>
<linearGradient id="paint0_linear_166_298" x1="300.377" y1="332" x2="204.377" y2="684" gradientUnits="userSpaceOnUse">
<stop stop-color="#79C5EF"/>
</linearGradient>
</defs>
</g></g></svg>
