<svg viewBox="-329 -777 579 821" fill="none" xmlns="http://www.w3.org/2000/svg"><g transform="translate(-249.500 -732.000)">
<path d="M224.651 409.01H285.315C355.691 409.01 412.833 466.042 412.833 536.283V717.577H86V547.386C86 471.016 148.125 409 224.651 409V409.01Z" fill="#F8AB1C"/>
<mask id="mask0_166_299" style="mask-type:luminance" maskUnits="userSpaceOnUse" x="86" y="409" width="327" height="323">
<path d="M224.651 409.01H285.315C355.691 409.01 412.833 466.042 412.833 536.283V731.449H86V547.386C86 471.016 148.125 409 224.651 409V409.01Z" fill="white"/>
</mask>
<g mask="url(#mask0_166_299)">
<path d="M405.553 467.423H92.6016V487.073H405.553V467.423Z" fill="#F4EFE6"/>
<path d="M429.607 505.001H69.8525V524.651H429.607V505.001Z" fill="#F4EFE6"/>
<path d="M429.607 541.795H69.8525V561.446H429.607V541.795Z" fill="#F4EFE6"/>
<path d="M429.607 581.85H69.8525V601.501H429.607V581.85Z" fill="#F4EFE6"/>
<path d="M429.607 622.163H69.8525V641.814H429.607V622.163Z" fill="#F4EFE6"/>
<path d="M429.607 670.167H69.8525V689.818H429.607V670.167Z" fill="#F4EFE6"/>
<path d="M405.553 429.845H92.6016V449.496H405.553V429.845Z" fill="#F4EFE6"/>
</g>
<path d="M0.000952997 61.5514C0.000952997 61.5514 -1.08952 128.365 70.5042 131.851L92.497 70.7032L0.000952997 61.5413V61.5514Z" fill="#428EA8"/>
<path d="M198.731 409.635L170.379 337.327C170.379 337.327 168.249 329.531 149.109 332.364C149.109 332.364 75.3857 358.586 66.1728 286.289L61.9231 260.771L46.3916 248.439C41.8564 244.842 41.5507 238.064 45.7393 234.069L63.0237 217.57C66.5397 214.217 67.7627 209.121 66.1524 204.535C58.295 182.216 40.501 113.812 97.3581 68.6752C97.3581 68.6752 198.802 -42.6136 340.573 82.148C340.573 82.148 426.261 232.418 286.62 294.096L329.149 420.977L216.464 427.836L198.721 409.635H198.731Z" fill="#FBCDC0"/>
<path d="M214.059 185.049C214.059 185.049 111.922 188.494 65.6738 109.083C65.6738 109.083 127.576 -43.5513 306.341 43.523C335.406 57.6786 360.293 95.4271 365.532 166.99L402.628 402.45C404.901 416.87 396.381 430.792 382.521 435.398C344.578 447.994 267.451 464.423 196.632 422.934C184.881 416.055 178.665 402.562 180.856 389.119L214.059 185.049Z" fill="#79C5EF"/>
<path d="M203.979 241.142C224.225 241.142 240.637 223.051 240.637 200.734C240.637 178.417 224.225 160.325 203.979 160.325C183.734 160.325 167.321 178.417 167.321 200.734C167.321 223.051 183.734 241.142 203.979 241.142Z" fill="#FBCDC0"/>
<path d="M375.672 221.432C375.672 221.432 296.904 181.625 270.406 166.144C175.78 110.857 81.1035 82.3416 81.1035 82.3416C81.1035 82.3416 117.578 -14.4551 246.365 1.8509C246.365 1.8509 286.223 0.362983 334.398 36.0834C383.224 72.2828 404.381 166.144 375.672 221.432Z" fill="#55A6C9"/>
<path d="M10.3851 55.6405C2.68047 57.3424 -2.00752 60.8482 1.21293 63.3858C2.57856 64.4661 20.026 66.0661 23.4197 66.4432C78.2386 72.558 127.87 121.975 157.822 111.173C157.822 111.173 175.402 67.1158 112.675 49.9333C92.8223 44.5014 34.4263 50.341 10.3749 55.6405H10.3851Z" fill="#55A6C9"/>
<path d="M52.2522 189.88C52.2522 210.429 68.911 227.088 89.4606 227.088C110.01 227.088 126.669 210.429 126.669 189.88V182.053C126.669 161.503 110.01 144.845 89.4606 144.845C68.911 144.845 52.2522 161.503 52.2522 182.053V189.88Z" stroke="#8E6036" stroke-width="9" stroke-miterlimit="10"/>
<path d="M184.84 178.293L123.428 181.554" stroke="#8E6036" stroke-width="10" stroke-miterlimit="10"/>
<path d="M203.979 241.142C224.225 241.142 240.637 223.051 240.637 200.734C240.637 178.417 224.225 160.325 203.979 160.325C183.734 160.325 167.321 178.417 167.321 200.734C167.321 223.051 183.734 241.142 203.979 241.142Z" fill="#FBCDC0"/>
<path d="M387.178 156.922C387.178 156.922 383.101 126.766 352.945 211.944L375.672 221.432C375.672 221.432 391.458 202.161 387.178 156.922Z" fill="#79C5EF"/>
<path d="M384.529 201.957C384.529 201.957 333.99 174.654 301.388 152.641L285.897 175.052C285.897 175.052 348.258 222.329 374.337 223.552L384.529 201.957Z" fill="#55A6C9"/>
<path d="M217.1 217.488C223.078 212.458 223.532 203.161 218.114 196.723C212.696 190.284 203.458 189.143 197.481 194.173C191.503 199.203 191.049 208.5 196.467 214.938C201.885 221.377 211.123 222.518 217.1 217.488Z" fill="white"/>
<path d="M217.637 210.351L215.445 207.747C213.945 205.964 211.283 205.735 209.5 207.235L186.855 226.29C185.072 227.791 184.843 230.452 186.344 232.235L188.535 234.84C190.036 236.623 192.697 236.852 194.48 235.352L217.125 216.296C218.908 214.796 219.137 212.134 217.637 210.351Z" fill="white"/>
<path d="M172.173 201.029C172.173 201.029 196.897 201.946 204.673 180.433L191.628 167.612L168.738 190.736L172.173 201.039V201.029Z" fill="#FBCDC0"/>
<path d="M94.9456 174.011C96.5219 172.893 98.7068 173.264 99.8255 174.84C100.909 176.367 100.595 178.465 99.1409 179.612L98.9964 179.72L98.9954 179.721L98.9837 179.729C98.976 179.734 98.9646 179.742 98.9505 179.752C98.922 179.772 98.8808 179.802 98.8274 179.839C98.7206 179.914 98.5649 180.023 98.3655 180.162C97.9665 180.439 97.3906 180.835 96.678 181.316C95.2546 182.277 93.2752 183.583 91.053 184.961C89.5553 185.891 87.8957 186.883 86.1907 187.838C90.3351 189.622 95.052 192.734 97.8733 198.148C98.7666 199.862 98.1012 201.976 96.387 202.87C94.673 203.763 92.5597 203.097 91.6663 201.383C89.5962 197.411 85.7892 195.088 82.1233 193.751C80.3224 193.095 78.6563 192.715 77.4426 192.5C76.839 192.394 76.3553 192.33 76.0344 192.293C75.8745 192.275 75.7555 192.265 75.6829 192.258C75.6467 192.255 75.622 192.252 75.6096 192.251H75.6077C75.6078 192.251 75.6085 192.252 75.6087 192.25C73.9152 192.141 72.5439 190.834 72.3557 189.147C72.1676 187.46 73.2173 185.88 74.846 185.401C78.0721 184.451 82.984 181.73 87.3626 179.013C89.4893 177.694 91.3911 176.438 92.762 175.513C93.4466 175.051 93.9973 174.673 94.3743 174.412C94.5626 174.281 94.7071 174.179 94.804 174.111C94.8521 174.077 94.8887 174.051 94.9124 174.035C94.9242 174.026 94.9333 174.02 94.9387 174.016C94.9414 174.014 94.9435 174.013 94.9446 174.012L94.9456 174.011Z" fill="#221E25"/>
</g></svg>
