<svg width="97" height="97" viewBox="0 0 97 97" fill="none" xmlns="http://www.w3.org/2000/svg">
<path d="M78.8914 21.955L22.6999 16.8735L17.4461 74.9703L73.6375 80.0519L78.8914 21.955Z" fill="#D0EBFB"/>
<path d="M66.528 36.4962L33.5706 33.5157C32.1227 33.3848 30.8429 34.4513 30.7121 35.8979C30.5813 37.3445 31.6489 38.6233 33.0968 38.7543L66.0543 41.7347C67.5021 41.8656 68.7819 40.7991 68.9127 39.3525C69.0436 37.9059 67.9759 36.6271 66.528 36.4962Z" fill="white"/>
<path d="M65.6091 46.6238L32.6516 43.6433C31.2037 43.5124 29.924 44.5789 29.7931 46.0255C29.6623 47.4721 30.73 48.7509 32.1779 48.8819L65.1353 51.8623C66.5832 51.9932 67.863 50.9267 67.9938 49.4801C68.1246 48.0335 67.0569 46.7547 65.6091 46.6238Z" fill="white"/>
<path d="M64.693 56.7577L31.7356 53.7772C30.2877 53.6463 29.0079 54.7128 28.8771 56.1594C28.7463 57.606 29.814 58.8848 31.2619 59.0158L64.2193 61.9962C65.6672 62.1271 66.947 61.0606 67.0778 59.614C67.2086 58.1674 66.1409 56.8886 64.693 56.7577Z" fill="white"/>
</svg>
