<svg width="49" height="49" viewBox="0 0 49 49" fill="none" xmlns="http://www.w3.org/2000/svg">
<path d="M30.9064 39.9321C29.9347 42.9246 27.9857 48.966 24.5341 48.9999C21.0825 49.0337 19.0601 43.0318 18.1167 39.949C15.36 41.3662 9.84078 44.2401 7.24783 41.9139C4.63794 39.5707 7.62067 33.5575 9.07814 30.8869C6.01632 29.9892 0.00564912 27.9904 0 24.5067C0 21.1303 6.06716 18.9734 9.09509 18.1435C7.54158 15.2865 4.79611 9.79274 7.1179 7.23502C9.41709 4.69988 15.5012 7.67542 18.0998 9.06438C19.1223 5.97027 20.6137 1.17101 23.7376 0.137762C27.4604 -1.09311 30.1324 6.25258 30.8668 9.10391C33.6857 7.61896 39.2953 4.77893 41.7753 7.16726C44.3061 9.60641 41.3855 15.5067 39.9111 18.0926L43.1988 19.2558C44.9783 19.8881 46.6674 20.8593 47.9723 22.1748C49.1586 23.3718 49.379 25.1221 48.3113 26.449C46.2776 28.9841 43.1141 29.8085 39.9506 30.8982C41.3233 33.5745 44.6168 39.87 41.4363 42.151C38.8829 43.9804 33.7818 41.4961 30.9007 39.9377L30.9064 39.9321Z" fill="#1A87D5"/>
</svg>
