<svg width="60" height="60" viewBox="0 0 60 60" fill="none" xmlns="http://www.w3.org/2000/svg">
<path d="M45.4348 48.6974C44.4495 54.6051 40.2188 58.8048 34.6046 59.7421C28.9145 60.6898 23.4824 57.8881 20.7929 52.6448C18.8555 48.8721 15.5447 46.1716 11.2823 45.4491C5.47809 44.4672 1.0245 40.2212 0.15668 34.5234C-0.709157 28.8375 2.06677 23.3993 7.35265 20.7575C11.2657 18.8024 13.815 15.2564 14.5747 10.9452C15.5847 5.21263 19.8512 1.02392 25.506 0.15486C31.0563 -0.701457 36.5241 2.03848 39.1184 7.26392C41.1535 11.357 44.8463 13.8503 49.2951 14.6578C55.502 15.7851 59.7894 20.9584 59.9177 27.1732C60.0221 32.2965 57.352 36.6941 52.7691 39.0479C48.9693 40.9986 46.1688 44.3056 45.4348 48.6974Z" fill="#FACC61"/>
</svg>
