<svg width="106.626" height="106.655" overflow="visible" style="display: block;" viewBox="0 0 106.626 106.655" fill="none" xmlns="http://www.w3.org/2000/svg">
<path id="Vector" d="M91.2269 78.3878C92.6969 89.4978 87.4269 99.3278 77.8969 104.078C68.2369 108.888 56.9869 106.848 49.3069 98.9378C43.7769 93.2478 36.3769 90.2278 28.3569 91.2678C17.4369 92.6878 7.14693 87.5278 2.47693 77.8078C-2.18307 68.1078 -0.193079 56.8578 7.81692 49.2378C13.7469 43.5978 16.3669 35.8578 15.3669 27.7278C14.0369 16.9178 19.3769 7.08779 29.0169 2.43779C38.4769 -2.13221 49.7569 -0.222208 57.2569 7.70779C63.1369 13.9178 71.1069 16.3578 79.5069 15.3678C91.2269 13.9878 101.727 20.8978 105.357 31.9478C108.347 41.0578 105.977 50.3878 99.0669 57.1078C93.3369 62.6778 90.1369 70.1278 91.2269 78.3878Z" fill="var(--fill-0, #FACC61)"/>
</svg>
