<svg width="272" height="118" viewBox="0 0 272 118" fill="none" xmlns="http://www.w3.org/2000/svg">
<g filter="url(#filter0_d_37_246)">
<path d="M10 16C10 7.16344 17.1634 0 26 0H246C254.837 0 262 7.16344 262 16V82C262 90.8366 254.837 98 246 98H10V16Z" fill="white" shape-rendering="crispEdges"/>
<circle cx="37.5" cy="28.5" r="9.5" fill="#DB0025"/>
<path d="M37.9034 24H38.9602V30.2386C38.9602 30.7955 38.858 31.2685 38.6534 31.6577C38.4489 32.0469 38.1605 32.3423 37.7884 32.544C37.4162 32.7457 36.9773 32.8466 36.4716 32.8466C35.9943 32.8466 35.5696 32.7599 35.1974 32.5866C34.8253 32.4105 34.5327 32.1605 34.3196 31.8366C34.1065 31.5128 34 31.1278 34 30.6818H35.0398C35.0398 30.929 35.1009 31.1449 35.223 31.3295C35.348 31.5114 35.5185 31.6534 35.7344 31.7557C35.9503 31.858 36.196 31.9091 36.4716 31.9091C36.7756 31.9091 37.0341 31.8452 37.2472 31.7173C37.4602 31.5895 37.6222 31.402 37.733 31.1548C37.8466 30.9048 37.9034 30.5994 37.9034 30.2386V24Z" fill="white"/>
<path d="M64.377 26.4395V20.4688H65.8418V26.4395C65.8418 27.0059 65.7207 27.4883 65.4785 27.8867C65.2363 28.2852 64.9062 28.5898 64.4883 28.8008C64.0703 29.0117 63.5957 29.1172 63.0645 29.1172C62.5215 29.1172 62.0391 29.0254 61.6172 28.8418C61.1992 28.6582 60.8711 28.377 60.6328 27.998C60.3945 27.6191 60.2754 27.1387 60.2754 26.5566H61.752C61.752 26.8926 61.8047 27.1641 61.9102 27.3711C62.0195 27.5742 62.1719 27.7227 62.3672 27.8164C62.5664 27.9062 62.7988 27.9512 63.0645 27.9512C63.3184 27.9512 63.543 27.8945 63.7383 27.7812C63.9375 27.6641 64.0938 27.4941 64.207 27.2715C64.3203 27.0449 64.377 26.7676 64.377 26.4395ZM70.8488 27.7285V24.7051C70.8488 24.4785 70.8077 24.2832 70.7257 24.1191C70.6437 23.9551 70.5187 23.8281 70.3507 23.7383C70.1866 23.6484 69.9796 23.6035 69.7296 23.6035C69.4991 23.6035 69.2999 23.6426 69.132 23.7207C68.964 23.7988 68.8331 23.9043 68.7394 24.0371C68.6456 24.1699 68.5988 24.3203 68.5988 24.4883H67.1925C67.1925 24.2383 67.253 23.9961 67.3741 23.7617C67.4952 23.5273 67.671 23.3184 67.9015 23.1348C68.132 22.9512 68.4073 22.8066 68.7277 22.7012C69.048 22.5957 69.4073 22.543 69.8058 22.543C70.2823 22.543 70.7042 22.623 71.0714 22.7832C71.4425 22.9434 71.7335 23.1855 71.9445 23.5098C72.1593 23.8301 72.2667 24.2324 72.2667 24.7168V27.5352C72.2667 27.8242 72.2863 28.084 72.3253 28.3145C72.3683 28.541 72.4288 28.7383 72.507 28.9062V29H71.0597C70.9933 28.8477 70.9405 28.6543 70.9015 28.4199C70.8663 28.1816 70.8488 27.9512 70.8488 27.7285ZM71.0538 25.1445L71.0655 26.0176H70.0519C69.7902 26.0176 69.5597 26.043 69.3605 26.0938C69.1613 26.1406 68.9952 26.2109 68.8624 26.3047C68.7296 26.3984 68.63 26.5117 68.5636 26.6445C68.4972 26.7773 68.464 26.9277 68.464 27.0957C68.464 27.2637 68.503 27.418 68.5812 27.5586C68.6593 27.6953 68.7726 27.8027 68.921 27.8809C69.0734 27.959 69.257 27.998 69.4718 27.998C69.7609 27.998 70.0128 27.9395 70.2277 27.8223C70.4464 27.7012 70.6183 27.5547 70.7433 27.3828C70.8683 27.207 70.9347 27.041 70.9425 26.8848L71.3995 27.5117C71.3527 27.6719 71.2726 27.8438 71.1593 28.0273C71.046 28.2109 70.8976 28.3867 70.714 28.5547C70.5343 28.7188 70.3175 28.8535 70.0636 28.959C69.8136 29.0645 69.5245 29.1172 69.1964 29.1172C68.7823 29.1172 68.4132 29.0352 68.089 28.8711C67.7648 28.7031 67.5109 28.4785 67.3273 28.1973C67.1437 27.9121 67.0519 27.5898 67.0519 27.2305C67.0519 26.8945 67.1144 26.5977 67.2394 26.3398C67.3683 26.0781 67.5558 25.8594 67.8019 25.6836C68.0519 25.5078 68.3566 25.375 68.7159 25.2852C69.0753 25.1914 69.4855 25.1445 69.9464 25.1445H71.0538ZM75.0237 24.0137V29H73.6116V22.6602H74.9416L75.0237 24.0137ZM74.7717 25.5957L74.3147 25.5898C74.3186 25.1406 74.3811 24.7285 74.5022 24.3535C74.6272 23.9785 74.7991 23.6562 75.0178 23.3867C75.2405 23.1172 75.5061 22.9102 75.8147 22.7656C76.1233 22.6172 76.467 22.543 76.8459 22.543C77.1506 22.543 77.426 22.5859 77.6721 22.6719C77.9221 22.7539 78.135 22.8887 78.3108 23.0762C78.4905 23.2637 78.6272 23.5078 78.7209 23.8086C78.8147 24.1055 78.8616 24.4707 78.8616 24.9043V29H77.4436V24.8984C77.4436 24.5938 77.3987 24.3535 77.3088 24.1777C77.2229 23.998 77.0959 23.8711 76.928 23.7969C76.7639 23.7188 76.5588 23.6797 76.3127 23.6797C76.0705 23.6797 75.8538 23.7305 75.6623 23.832C75.4709 23.9336 75.3088 24.0723 75.176 24.248C75.0471 24.4238 74.9475 24.627 74.8772 24.8574C74.8069 25.0879 74.7717 25.334 74.7717 25.5957ZM81.6947 22.6602V29H80.2767V22.6602H81.6947ZM80.183 20.9961C80.183 20.7812 80.2533 20.6035 80.3939 20.4629C80.5384 20.3184 80.7377 20.2461 80.9916 20.2461C81.2416 20.2461 81.4388 20.3184 81.5834 20.4629C81.7279 20.6035 81.8002 20.7812 81.8002 20.9961C81.8002 21.207 81.7279 21.3828 81.5834 21.5234C81.4388 21.6641 81.2416 21.7344 80.9916 21.7344C80.7377 21.7344 80.5384 21.6641 80.3939 21.5234C80.2533 21.3828 80.183 21.207 80.183 20.9961ZM85.7114 27.9922C85.9419 27.9922 86.1489 27.9473 86.3325 27.8574C86.52 27.7637 86.6704 27.6348 86.7837 27.4707C86.9009 27.3066 86.9653 27.1172 86.977 26.9023H88.3071C88.2993 27.3125 88.1782 27.6855 87.9438 28.0215C87.7095 28.3574 87.3989 28.625 87.0122 28.8242C86.6255 29.0195 86.1977 29.1172 85.729 29.1172C85.2446 29.1172 84.8227 29.0352 84.4634 28.8711C84.104 28.7031 83.8052 28.4727 83.5669 28.1797C83.3286 27.8867 83.1489 27.5488 83.0278 27.166C82.9106 26.7832 82.852 26.373 82.852 25.9355V25.7305C82.852 25.293 82.9106 24.8828 83.0278 24.5C83.1489 24.1133 83.3286 23.7734 83.5669 23.4805C83.8052 23.1875 84.104 22.959 84.4634 22.7949C84.8227 22.627 85.2427 22.543 85.7231 22.543C86.2309 22.543 86.6763 22.6445 87.0591 22.8477C87.4419 23.0469 87.7427 23.3262 87.9614 23.6855C88.1841 24.041 88.2993 24.4551 88.3071 24.9277H86.977C86.9653 24.6934 86.9067 24.4824 86.8013 24.2949C86.6997 24.1035 86.5552 23.9512 86.3677 23.8379C86.1841 23.7246 85.9634 23.668 85.7055 23.668C85.4204 23.668 85.1841 23.7266 84.9966 23.8438C84.8091 23.957 84.6626 24.1133 84.5571 24.3125C84.4516 24.5078 84.3755 24.7285 84.3286 24.9746C84.2856 25.2168 84.2641 25.4688 84.2641 25.7305V25.9355C84.2641 26.1973 84.2856 26.4512 84.3286 26.6973C84.3716 26.9434 84.4458 27.1641 84.5513 27.3594C84.6606 27.5508 84.8091 27.7051 84.9966 27.8223C85.1841 27.9355 85.4223 27.9922 85.7114 27.9922ZM92.066 29.1172C91.5973 29.1172 91.1734 29.041 90.7945 28.8887C90.4195 28.7324 90.0992 28.5156 89.8336 28.2383C89.5719 27.9609 89.3707 27.6348 89.2301 27.2598C89.0895 26.8848 89.0191 26.4805 89.0191 26.0469V25.8125C89.0191 25.3164 89.0914 24.8672 89.2359 24.4648C89.3805 24.0625 89.5816 23.7188 89.8395 23.4336C90.0973 23.1445 90.402 22.9238 90.7535 22.7715C91.1051 22.6191 91.4859 22.543 91.8961 22.543C92.3492 22.543 92.7457 22.6191 93.0855 22.7715C93.4254 22.9238 93.7066 23.1387 93.9293 23.416C94.1559 23.6895 94.3238 24.0156 94.4332 24.3945C94.5465 24.7734 94.6031 25.1914 94.6031 25.6484V26.252H89.7047V25.2383H93.2086V25.127C93.2008 24.873 93.15 24.6348 93.0562 24.4121C92.9664 24.1895 92.8277 24.0098 92.6402 23.873C92.4527 23.7363 92.2027 23.668 91.8902 23.668C91.6559 23.668 91.4469 23.7188 91.2633 23.8203C91.0836 23.918 90.9332 24.0605 90.8121 24.248C90.691 24.4355 90.5973 24.6621 90.5309 24.9277C90.4684 25.1895 90.4371 25.4844 90.4371 25.8125V26.0469C90.4371 26.3242 90.4742 26.582 90.5484 26.8203C90.6266 27.0547 90.7398 27.2598 90.8883 27.4355C91.0367 27.6113 91.2164 27.75 91.4273 27.8516C91.6383 27.9492 91.8785 27.998 92.148 27.998C92.4879 27.998 92.7906 27.9297 93.0562 27.793C93.3219 27.6562 93.5523 27.4629 93.7477 27.2129L94.4918 27.9336C94.3551 28.1328 94.1773 28.3242 93.9586 28.5078C93.7398 28.6875 93.4723 28.834 93.1559 28.9473C92.8434 29.0605 92.4801 29.1172 92.066 29.1172ZM103.937 27.834V29H99.6541V27.834H103.937ZM100.064 20.4688V29H98.5936V20.4688H100.064Z" fill="#191919"/>
<path d="M60.483 42.5085V41.7273H65.9375V42.5085H63.6506V49H62.7699V42.5085H60.483ZM67.9211 45.7188V49H67.0831V41.7273H67.9211V44.3977H67.9922C68.12 44.116 68.3118 43.8923 68.5674 43.7266C68.8255 43.5585 69.1688 43.4744 69.5973 43.4744C69.969 43.4744 70.2945 43.549 70.5738 43.6982C70.8532 43.8449 71.0698 44.071 71.2237 44.3764C71.3799 44.6795 71.4581 45.0653 71.4581 45.5341V49H70.62V45.5909C70.62 45.1577 70.5075 44.8227 70.2826 44.5859C70.0601 44.3468 69.7511 44.2273 69.3558 44.2273C69.0812 44.2273 68.835 44.2853 68.6172 44.4013C68.4017 44.5173 68.2313 44.6866 68.1058 44.9091C67.9827 45.1316 67.9211 45.4015 67.9211 45.7188ZM75.1782 49.1136C74.6526 49.1136 74.1993 48.9976 73.8181 48.7656C73.4393 48.5312 73.1469 48.2045 72.941 47.7855C72.7374 47.3641 72.6356 46.8741 72.6356 46.3153C72.6356 45.7566 72.7374 45.2642 72.941 44.8381C73.1469 44.4096 73.4334 44.0758 73.8004 43.8366C74.1697 43.5952 74.6005 43.4744 75.093 43.4744C75.3771 43.4744 75.6576 43.5218 75.9346 43.6165C76.2116 43.7112 76.4637 43.8651 76.691 44.0781C76.9183 44.2888 77.0994 44.5682 77.2343 44.9162C77.3692 45.2642 77.4367 45.6927 77.4367 46.2017V46.5568H73.2322V45.8324H76.5844C76.5844 45.5246 76.5229 45.25 76.3998 45.0085C76.279 44.767 76.1062 44.5765 75.8813 44.4368C75.6588 44.2971 75.396 44.2273 75.093 44.2273C74.7592 44.2273 74.4703 44.3101 74.2265 44.4759C73.985 44.6392 73.7992 44.8523 73.669 45.1151C73.5388 45.3778 73.4737 45.6596 73.4737 45.9602V46.4432C73.4737 46.8551 73.5447 47.2043 73.6867 47.4908C73.8311 47.7749 74.0312 47.9915 74.2869 48.1406C74.5425 48.2874 74.8397 48.3608 75.1782 48.3608C75.3984 48.3608 75.5972 48.33 75.7748 48.2685C75.9547 48.2045 76.1098 48.1098 76.24 47.9844C76.3702 47.8565 76.4708 47.6979 76.5418 47.5085L77.3515 47.7358C77.2663 48.0104 77.123 48.2519 76.9218 48.4602C76.7206 48.6662 76.472 48.8272 76.1761 48.9432C75.8801 49.0568 75.5475 49.1136 75.1782 49.1136ZM85.1877 44.767L84.4349 44.9801C84.3875 44.8546 84.3177 44.7327 84.2254 44.6143C84.1354 44.4936 84.0123 44.3942 83.856 44.3161C83.6998 44.2379 83.4997 44.1989 83.2559 44.1989C82.9221 44.1989 82.6439 44.2758 82.4214 44.4297C82.2012 44.5812 82.0911 44.7741 82.0911 45.0085C82.0911 45.2169 82.1669 45.3814 82.3184 45.5021C82.4699 45.6229 82.7067 45.7235 83.0286 45.804L83.8383 46.0028C84.326 46.1212 84.6894 46.3023 84.9285 46.5462C85.1676 46.7876 85.2871 47.099 85.2871 47.4801C85.2871 47.7926 85.1972 48.072 85.0173 48.3182C84.8397 48.5644 84.5911 48.7585 84.2715 48.9006C83.9519 49.0426 83.5802 49.1136 83.1565 49.1136C82.6001 49.1136 82.1397 48.9929 81.7751 48.7514C81.4105 48.5099 81.1797 48.1572 81.0826 47.6932L81.8781 47.4943C81.9538 47.7879 82.097 48.008 82.3077 48.1548C82.5208 48.3016 82.799 48.375 83.1423 48.375C83.5329 48.375 83.843 48.2921 84.0727 48.1264C84.3047 47.9583 84.4207 47.7571 84.4207 47.5227C84.4207 47.3333 84.3544 47.1747 84.2218 47.0469C84.0892 46.9167 83.8856 46.8196 83.611 46.7557L82.7019 46.5426C82.2024 46.4242 81.8354 46.2408 81.6011 45.9922C81.3691 45.7412 81.2531 45.4276 81.2531 45.0511C81.2531 44.7434 81.3395 44.4711 81.5123 44.2344C81.6875 43.9976 81.9254 43.8118 82.2261 43.6768C82.5291 43.5419 82.8724 43.4744 83.2559 43.4744C83.7957 43.4744 84.2194 43.5928 84.5272 43.8295C84.8373 44.0663 85.0575 44.3788 85.1877 44.767ZM89.8862 46.7699V43.5455H90.7243V49H89.8862V48.0767H89.8294C89.7015 48.3537 89.5027 48.5893 89.2328 48.7834C88.9629 48.9751 88.622 49.071 88.21 49.071C87.8691 49.071 87.5661 48.9964 87.301 48.8473C87.0358 48.6958 86.8275 48.4685 86.676 48.1655C86.5244 47.8601 86.4487 47.4754 86.4487 47.0114V43.5455H87.2868V46.9545C87.2868 47.3523 87.398 47.6695 87.6206 47.9062C87.8455 48.143 88.1319 48.2614 88.4799 48.2614C88.6883 48.2614 88.9002 48.2081 89.1156 48.1016C89.3334 47.995 89.5157 47.8317 89.6625 47.6115C89.8116 47.3913 89.8862 47.1108 89.8862 46.7699ZM92.2729 49V41.7273H93.1109V44.4119H93.182C93.2435 44.3172 93.3287 44.1965 93.4376 44.0497C93.5489 43.9006 93.7075 43.768 93.9135 43.652C94.1218 43.5336 94.4036 43.4744 94.7587 43.4744C95.2179 43.4744 95.6228 43.5893 95.9732 43.8189C96.3235 44.0485 96.597 44.3741 96.7935 44.7955C96.99 45.2169 97.0882 45.714 97.0882 46.2869C97.0882 46.8646 96.99 47.3653 96.7935 47.7891C96.597 48.2105 96.3247 48.5372 95.9767 48.7692C95.6287 48.9988 95.2274 49.1136 94.7729 49.1136C94.4225 49.1136 94.142 49.0556 93.9312 48.9396C93.7205 48.8213 93.5584 48.6875 93.4447 48.5384C93.3311 48.3868 93.2435 48.2614 93.182 48.1619H93.0825V49H92.2729ZM93.0967 46.2727C93.0967 46.6847 93.1571 47.0481 93.2778 47.3629C93.3986 47.6754 93.575 47.9205 93.807 48.098C94.039 48.2732 94.3231 48.3608 94.6592 48.3608C95.0096 48.3608 95.302 48.2685 95.5364 48.0838C95.7731 47.8968 95.9507 47.6458 96.069 47.331C96.1898 47.0137 96.2501 46.661 96.2501 46.2727C96.2501 45.8892 96.191 45.5436 96.0726 45.2358C95.9566 44.9257 95.7802 44.6806 95.5435 44.5007C95.3091 44.3184 95.0143 44.2273 94.6592 44.2273C94.3183 44.2273 94.0319 44.3137 93.7999 44.4865C93.5679 44.657 93.3927 44.8961 93.2743 45.2038C93.1559 45.5092 93.0967 45.8655 93.0967 46.2727ZM99.1082 45.7188V49H98.2702V41.7273H99.1082V44.3977H99.1793C99.3071 44.116 99.4989 43.8923 99.7545 43.7266C100.013 43.5585 100.356 43.4744 100.784 43.4744C101.156 43.4744 101.482 43.549 101.761 43.6982C102.04 43.8449 102.257 44.071 102.411 44.3764C102.567 44.6795 102.645 45.0653 102.645 45.5341V49H101.807V45.5909C101.807 45.1577 101.695 44.8227 101.47 44.5859C101.247 44.3468 100.938 44.2273 100.543 44.2273C100.268 44.2273 100.022 44.2853 99.8043 44.4013C99.5888 44.5173 99.4184 44.6866 99.2929 44.9091C99.1698 45.1316 99.1082 45.4015 99.1082 45.7188ZM106.365 49.1136C105.84 49.1136 105.386 48.9976 105.005 48.7656C104.626 48.5312 104.334 48.2045 104.128 47.7855C103.924 47.3641 103.823 46.8741 103.823 46.3153C103.823 45.7566 103.924 45.2642 104.128 44.8381C104.334 44.4096 104.621 44.0758 104.987 43.8366C105.357 43.5952 105.788 43.4744 106.28 43.4744C106.564 43.4744 106.845 43.5218 107.122 43.6165C107.399 43.7112 107.651 43.8651 107.878 44.0781C108.105 44.2888 108.286 44.5682 108.421 44.9162C108.556 45.2642 108.624 45.6927 108.624 46.2017V46.5568H104.419V45.8324H107.772C107.772 45.5246 107.71 45.25 107.587 45.0085C107.466 44.767 107.293 44.5765 107.068 44.4368C106.846 44.2971 106.583 44.2273 106.28 44.2273C105.946 44.2273 105.657 44.3101 105.414 44.4759C105.172 44.6392 104.986 44.8523 104.856 45.1151C104.726 45.3778 104.661 45.6596 104.661 45.9602V46.4432C104.661 46.8551 104.732 47.2043 104.874 47.4908C105.018 47.7749 105.218 47.9915 105.474 48.1406C105.73 48.2874 106.027 48.3608 106.365 48.3608C106.585 48.3608 106.784 48.33 106.962 48.2685C107.142 48.2045 107.297 48.1098 107.427 47.9844C107.557 47.8565 107.658 47.6979 107.729 47.5085L108.539 47.7358C108.453 48.0104 108.31 48.2519 108.109 48.4602C107.908 48.6662 107.659 48.8272 107.363 48.9432C107.067 49.0568 106.735 49.1136 106.365 49.1136ZM111.404 49.1278C111.058 49.1278 110.744 49.0627 110.463 48.9325C110.181 48.8 109.957 48.6094 109.792 48.3608C109.626 48.1098 109.543 47.8068 109.543 47.4517C109.543 47.1392 109.605 46.8859 109.728 46.6918C109.851 46.4953 110.015 46.3414 110.221 46.2301C110.427 46.1188 110.655 46.036 110.903 45.9815C111.154 45.9247 111.406 45.8797 111.659 45.8466C111.991 45.804 112.26 45.772 112.466 45.7507C112.674 45.727 112.825 45.688 112.92 45.6335C113.017 45.5791 113.066 45.4844 113.066 45.3494V45.321C113.066 44.9706 112.97 44.6984 112.778 44.5043C112.589 44.3101 112.301 44.2131 111.915 44.2131C111.515 44.2131 111.201 44.3007 110.974 44.4759C110.747 44.651 110.587 44.8381 110.495 45.0369L109.699 44.7528C109.841 44.4214 110.031 44.1634 110.267 43.9787C110.507 43.7917 110.767 43.6615 111.049 43.5881C111.333 43.5123 111.612 43.4744 111.887 43.4744C112.062 43.4744 112.263 43.4957 112.49 43.5384C112.72 43.5786 112.941 43.6626 113.155 43.7905C113.37 43.9183 113.549 44.1113 113.691 44.3693C113.833 44.6274 113.904 44.973 113.904 45.4062V49H113.066V48.2614H113.023C112.966 48.3797 112.872 48.5064 112.739 48.6413C112.606 48.7763 112.43 48.8911 112.21 48.9858C111.99 49.0805 111.721 49.1278 111.404 49.1278ZM111.532 48.375C111.863 48.375 112.142 48.3099 112.37 48.1797C112.599 48.0495 112.772 47.8814 112.888 47.6754C113.007 47.4695 113.066 47.2528 113.066 47.0256V46.2585C113.03 46.3011 112.952 46.3402 112.831 46.3757C112.713 46.4089 112.576 46.4384 112.419 46.4645C112.266 46.4882 112.115 46.5095 111.968 46.5284C111.824 46.545 111.707 46.5592 111.617 46.571C111.399 46.5994 111.195 46.6456 111.006 46.7095C110.819 46.7711 110.668 46.8646 110.552 46.9901C110.438 47.1132 110.381 47.2812 110.381 47.4943C110.381 47.7855 110.489 48.0057 110.704 48.1548C110.922 48.3016 111.198 48.375 111.532 48.375ZM117.393 49.1136C116.939 49.1136 116.537 48.9988 116.189 48.7692C115.841 48.5372 115.569 48.2105 115.373 47.7891C115.176 47.3653 115.078 46.8646 115.078 46.2869C115.078 45.714 115.176 45.2169 115.373 44.7955C115.569 44.3741 115.842 44.0485 116.193 43.8189C116.543 43.5893 116.948 43.4744 117.407 43.4744C117.762 43.4744 118.043 43.5336 118.249 43.652C118.457 43.768 118.616 43.9006 118.725 44.0497C118.836 44.1965 118.922 44.3172 118.984 44.4119H119.055V41.7273H119.893V49H119.083V48.1619H118.984C118.922 48.2614 118.835 48.3868 118.721 48.5384C118.608 48.6875 118.445 48.8213 118.235 48.9396C118.024 49.0556 117.743 49.1136 117.393 49.1136ZM117.507 48.3608C117.843 48.3608 118.127 48.2732 118.359 48.098C118.591 47.9205 118.767 47.6754 118.888 47.3629C119.009 47.0481 119.069 46.6847 119.069 46.2727C119.069 45.8655 119.01 45.5092 118.892 45.2038C118.773 44.8961 118.598 44.657 118.366 44.4865C118.134 44.3137 117.848 44.2273 117.507 44.2273C117.152 44.2273 116.856 44.3184 116.619 44.5007C116.385 44.6806 116.208 44.9257 116.09 45.2358C115.974 45.5436 115.916 45.8892 115.916 46.2727C115.916 46.661 115.975 47.0137 116.093 47.331C116.214 47.6458 116.392 47.8968 116.626 48.0838C116.863 48.2685 117.156 48.3608 117.507 48.3608ZM122.282 41.7273V49H121.444V41.7273H122.282ZM123.717 49V43.5455H124.556V49H123.717ZM124.144 42.6364C123.98 42.6364 123.839 42.5807 123.721 42.4695C123.605 42.3582 123.547 42.2244 123.547 42.0682C123.547 41.9119 123.605 41.7782 123.721 41.6669C123.839 41.5556 123.98 41.5 124.144 41.5C124.307 41.5 124.447 41.5556 124.563 41.6669C124.681 41.7782 124.74 41.9119 124.74 42.0682C124.74 42.2244 124.681 42.3582 124.563 42.4695C124.447 42.5807 124.307 42.6364 124.144 42.6364ZM126.829 45.7188V49H125.99V43.5455H126.8V44.3977H126.871C126.999 44.1207 127.193 43.8982 127.454 43.7301C127.714 43.5597 128.05 43.4744 128.462 43.4744C128.831 43.4744 129.155 43.5502 129.432 43.7017C129.709 43.8509 129.924 44.0781 130.078 44.3835C130.232 44.6866 130.309 45.0701 130.309 45.5341V49H129.471V45.5909C129.471 45.1624 129.359 44.8286 129.137 44.5895C128.914 44.348 128.609 44.2273 128.221 44.2273C127.953 44.2273 127.714 44.2853 127.503 44.4013C127.295 44.5173 127.13 44.6866 127.01 44.9091C126.889 45.1316 126.829 45.4015 126.829 45.7188ZM134.027 49.1136C133.501 49.1136 133.048 48.9976 132.667 48.7656C132.288 48.5312 131.996 48.2045 131.79 47.7855C131.586 47.3641 131.484 46.8741 131.484 46.3153C131.484 45.7566 131.586 45.2642 131.79 44.8381C131.996 44.4096 132.282 44.0758 132.649 43.8366C133.018 43.5952 133.449 43.4744 133.942 43.4744C134.226 43.4744 134.506 43.5218 134.783 43.6165C135.06 43.7112 135.313 43.8651 135.54 44.0781C135.767 44.2888 135.948 44.5682 136.083 44.9162C136.218 45.2642 136.286 45.6927 136.286 46.2017V46.5568H132.081V45.8324H135.433C135.433 45.5246 135.372 45.25 135.249 45.0085C135.128 44.767 134.955 44.5765 134.73 44.4368C134.508 44.2971 134.245 44.2273 133.942 44.2273C133.608 44.2273 133.319 44.3101 133.075 44.4759C132.834 44.6392 132.648 44.8523 132.518 45.1151C132.388 45.3778 132.322 45.6596 132.322 45.9602V46.4432C132.322 46.8551 132.393 47.2043 132.536 47.4908C132.68 47.7749 132.88 47.9915 133.136 48.1406C133.391 48.2874 133.688 48.3608 134.027 48.3608C134.247 48.3608 134.446 48.33 134.624 48.2685C134.804 48.2045 134.959 48.1098 135.089 47.9844C135.219 47.8565 135.32 47.6979 135.391 47.5085L136.2 47.7358C136.115 48.0104 135.972 48.2519 135.771 48.4602C135.569 48.6662 135.321 48.8272 135.025 48.9432C134.729 49.0568 134.396 49.1136 134.027 49.1136ZM142.389 49.1136C141.896 49.1136 141.464 48.9964 141.093 48.7621C140.723 48.5277 140.435 48.1998 140.226 47.7784C140.02 47.357 139.917 46.8646 139.917 46.3011C139.917 45.733 140.02 45.237 140.226 44.8132C140.435 44.3894 140.723 44.0604 141.093 43.826C141.464 43.5916 141.896 43.4744 142.389 43.4744C142.881 43.4744 143.312 43.5916 143.681 43.826C144.053 44.0604 144.342 44.3894 144.548 44.8132C144.756 45.237 144.86 45.733 144.86 46.3011C144.86 46.8646 144.756 47.357 144.548 47.7784C144.342 48.1998 144.053 48.5277 143.681 48.7621C143.312 48.9964 142.881 49.1136 142.389 49.1136ZM142.389 48.3608C142.763 48.3608 143.071 48.2649 143.312 48.0732C143.554 47.8814 143.732 47.6293 143.848 47.3168C143.964 47.0043 144.022 46.6657 144.022 46.3011C144.022 45.9366 143.964 45.5968 143.848 45.282C143.732 44.9671 143.554 44.7126 143.312 44.5185C143.071 44.3243 142.763 44.2273 142.389 44.2273C142.015 44.2273 141.707 44.3243 141.466 44.5185C141.224 44.7126 141.045 44.9671 140.929 45.282C140.813 45.5968 140.755 45.9366 140.755 46.3011C140.755 46.6657 140.813 47.0043 140.929 47.3168C141.045 47.6293 141.224 47.8814 141.466 48.0732C141.707 48.2649 142.015 48.3608 142.389 48.3608ZM149.477 46.7699V43.5455H150.315V49H149.477V48.0767H149.42C149.293 48.3537 149.094 48.5893 148.824 48.7834C148.554 48.9751 148.213 49.071 147.801 49.071C147.46 49.071 147.157 48.9964 146.892 48.8473C146.627 48.6958 146.418 48.4685 146.267 48.1655C146.115 47.8601 146.04 47.4754 146.04 47.0114V43.5455H146.878V46.9545C146.878 47.3523 146.989 47.6695 147.212 47.9062C147.436 48.143 147.723 48.2614 148.071 48.2614C148.279 48.2614 148.491 48.2081 148.707 48.1016C148.924 47.995 149.107 47.8317 149.253 47.6115C149.403 47.3913 149.477 47.1108 149.477 46.7699ZM154.122 43.5455V44.2557H151.296V43.5455H154.122ZM152.12 42.2386H152.958V47.4375C152.958 47.6742 152.992 47.8518 153.061 47.9702C153.132 48.0862 153.222 48.1643 153.331 48.2045C153.442 48.2424 153.559 48.2614 153.682 48.2614C153.774 48.2614 153.85 48.2566 153.909 48.2472C153.969 48.2353 154.016 48.2259 154.051 48.2188L154.222 48.9716C154.165 48.9929 154.086 49.0142 153.984 49.0355C153.882 49.0592 153.753 49.071 153.597 49.071C153.36 49.071 153.128 49.0201 152.901 48.9183C152.676 48.8165 152.489 48.6615 152.34 48.4531C152.193 48.2448 152.12 47.982 152.12 47.6648V42.2386ZM159.049 44.767L158.296 44.9801C158.249 44.8546 158.179 44.7327 158.087 44.6143C157.997 44.4936 157.874 44.3942 157.717 44.3161C157.561 44.2379 157.361 44.1989 157.117 44.1989C156.783 44.1989 156.505 44.2758 156.283 44.4297C156.063 44.5812 155.952 44.7741 155.952 45.0085C155.952 45.2169 156.028 45.3814 156.18 45.5021C156.331 45.6229 156.568 45.7235 156.89 45.804L157.7 46.0028C158.187 46.1212 158.551 46.3023 158.79 46.5462C159.029 46.7876 159.148 47.099 159.148 47.4801C159.148 47.7926 159.059 48.072 158.879 48.3182C158.701 48.5644 158.452 48.7585 158.133 48.9006C157.813 49.0426 157.442 49.1136 157.018 49.1136C156.461 49.1136 156.001 48.9929 155.636 48.7514C155.272 48.5099 155.041 48.1572 154.944 47.6932L155.739 47.4943C155.815 47.7879 155.958 48.008 156.169 48.1548C156.382 48.3016 156.66 48.375 157.004 48.375C157.394 48.375 157.704 48.2921 157.934 48.1264C158.166 47.9583 158.282 47.7571 158.282 47.5227C158.282 47.3333 158.216 47.1747 158.083 47.0469C157.951 46.9167 157.747 46.8196 157.472 46.7557L156.563 46.5426C156.064 46.4242 155.697 46.2408 155.462 45.9922C155.23 45.7412 155.114 45.4276 155.114 45.0511C155.114 44.7434 155.201 44.4711 155.374 44.2344C155.549 43.9976 155.787 43.8118 156.087 43.6768C156.39 43.5419 156.734 43.4744 157.117 43.4744C157.657 43.4744 158.081 43.5928 158.389 43.8295C158.699 44.0663 158.919 44.3788 159.049 44.767ZM160.31 49V43.5455H161.148V49H160.31ZM160.736 42.6364C160.573 42.6364 160.432 42.5807 160.314 42.4695C160.198 42.3582 160.14 42.2244 160.14 42.0682C160.14 41.9119 160.198 41.7782 160.314 41.6669C160.432 41.5556 160.573 41.5 160.736 41.5C160.9 41.5 161.039 41.5556 161.155 41.6669C161.274 41.7782 161.333 41.9119 161.333 42.0682C161.333 42.2244 161.274 42.3582 161.155 42.4695C161.039 42.5807 160.9 42.6364 160.736 42.6364ZM164.643 49.1136C164.188 49.1136 163.787 48.9988 163.439 48.7692C163.091 48.5372 162.819 48.2105 162.622 47.7891C162.426 47.3653 162.327 46.8646 162.327 46.2869C162.327 45.714 162.426 45.2169 162.622 44.7955C162.819 44.3741 163.092 44.0485 163.442 43.8189C163.793 43.5893 164.198 43.4744 164.657 43.4744C165.012 43.4744 165.293 43.5336 165.499 43.652C165.707 43.768 165.865 43.9006 165.974 44.0497C166.086 44.1965 166.172 44.3172 166.234 44.4119H166.305V41.7273H167.143V49H166.333V48.1619H166.234C166.172 48.2614 166.084 48.3868 165.971 48.5384C165.857 48.6875 165.695 48.8213 165.484 48.9396C165.274 49.0556 164.993 49.1136 164.643 49.1136ZM164.756 48.3608C165.093 48.3608 165.377 48.2732 165.609 48.098C165.841 47.9205 166.017 47.6754 166.138 47.3629C166.258 47.0481 166.319 46.6847 166.319 46.2727C166.319 45.8655 166.26 45.5092 166.141 45.2038C166.023 44.8961 165.848 44.657 165.616 44.4865C165.384 44.3137 165.097 44.2273 164.756 44.2273C164.401 44.2273 164.105 44.3184 163.869 44.5007C163.634 44.6806 163.458 44.9257 163.339 45.2358C163.223 45.5436 163.165 45.8892 163.165 46.2727C163.165 46.661 163.225 47.0137 163.343 47.331C163.464 47.6458 163.641 47.8968 163.876 48.0838C164.112 48.2685 164.406 48.3608 164.756 48.3608ZM170.981 49.1136C170.455 49.1136 170.002 48.9976 169.621 48.7656C169.242 48.5312 168.95 48.2045 168.744 47.7855C168.54 47.3641 168.438 46.8741 168.438 46.3153C168.438 45.7566 168.54 45.2642 168.744 44.8381C168.95 44.4096 169.236 44.0758 169.603 43.8366C169.972 43.5952 170.403 43.4744 170.896 43.4744C171.18 43.4744 171.46 43.5218 171.737 43.6165C172.014 43.7112 172.266 43.8651 172.494 44.0781C172.721 44.2888 172.902 44.5682 173.037 44.9162C173.172 45.2642 173.239 45.6927 173.239 46.2017V46.5568H169.035V45.8324H172.387C172.387 45.5246 172.326 45.25 172.203 45.0085C172.082 44.767 171.909 44.5765 171.684 44.4368C171.462 44.2971 171.199 44.2273 170.896 44.2273C170.562 44.2273 170.273 44.3101 170.029 44.4759C169.788 44.6392 169.602 44.8523 169.472 45.1151C169.341 45.3778 169.276 45.6596 169.276 45.9602V46.4432C169.276 46.8551 169.347 47.2043 169.489 47.4908C169.634 47.7749 169.834 47.9915 170.09 48.1406C170.345 48.2874 170.642 48.3608 170.981 48.3608C171.201 48.3608 171.4 48.33 171.578 48.2685C171.757 48.2045 171.913 48.1098 172.043 47.9844C172.173 47.8565 172.274 47.6979 172.345 47.5085L173.154 47.7358C173.069 48.0104 172.926 48.2519 172.725 48.4602C172.523 48.6662 172.275 48.8272 171.979 48.9432C171.683 49.0568 171.35 49.1136 170.981 49.1136ZM179.499 43.5455V44.2557H176.672V43.5455H179.499ZM177.496 42.2386H178.334V47.4375C178.334 47.6742 178.369 47.8518 178.437 47.9702C178.508 48.0862 178.598 48.1643 178.707 48.2045C178.818 48.2424 178.936 48.2614 179.059 48.2614C179.151 48.2614 179.227 48.2566 179.286 48.2472C179.345 48.2353 179.392 48.2259 179.428 48.2188L179.598 48.9716C179.542 48.9929 179.462 49.0142 179.36 49.0355C179.259 49.0592 179.13 49.071 178.973 49.071C178.737 49.071 178.505 49.0201 178.277 48.9183C178.052 48.8165 177.865 48.6615 177.716 48.4531C177.57 48.2448 177.496 47.982 177.496 47.6648V42.2386ZM181.615 45.7188V49H180.777V41.7273H181.615V44.3977H181.686C181.814 44.116 182.006 43.8923 182.261 43.7266C182.519 43.5585 182.863 43.4744 183.291 43.4744C183.663 43.4744 183.988 43.549 184.268 43.6982C184.547 43.8449 184.764 44.071 184.917 44.3764C185.074 44.6795 185.152 45.0653 185.152 45.5341V49H184.314V45.5909C184.314 45.1577 184.201 44.8227 183.976 44.5859C183.754 44.3468 183.445 44.2273 183.05 44.2273C182.775 44.2273 182.529 44.2853 182.311 44.4013C182.095 44.5173 181.925 44.6866 181.8 44.9091C181.676 45.1316 181.615 45.4015 181.615 45.7188ZM188.872 49.1136C188.346 49.1136 187.893 48.9976 187.512 48.7656C187.133 48.5312 186.841 48.2045 186.635 47.7855C186.431 47.3641 186.329 46.8741 186.329 46.3153C186.329 45.7566 186.431 45.2642 186.635 44.8381C186.841 44.4096 187.127 44.0758 187.494 43.8366C187.863 43.5952 188.294 43.4744 188.787 43.4744C189.071 43.4744 189.351 43.5218 189.628 43.6165C189.905 43.7112 190.157 43.8651 190.385 44.0781C190.612 44.2888 190.793 44.5682 190.928 44.9162C191.063 45.2642 191.13 45.6927 191.13 46.2017V46.5568H186.926V45.8324H190.278C190.278 45.5246 190.217 45.25 190.094 45.0085C189.973 44.767 189.8 44.5765 189.575 44.4368C189.353 44.2971 189.09 44.2273 188.787 44.2273C188.453 44.2273 188.164 44.3101 187.92 44.4759C187.679 44.6392 187.493 44.8523 187.363 45.1151C187.233 45.3778 187.167 45.6596 187.167 45.9602V46.4432C187.167 46.8551 187.238 47.2043 187.38 47.4908C187.525 47.7749 187.725 47.9915 187.981 48.1406C188.236 48.2874 188.533 48.3608 188.872 48.3608C189.092 48.3608 189.291 48.33 189.469 48.2685C189.648 48.2045 189.804 48.1098 189.934 47.9844C190.064 47.8565 190.165 47.6979 190.236 47.5085L191.045 47.7358C190.96 48.0104 190.817 48.2519 190.616 48.4602C190.414 48.6662 190.166 48.8272 189.87 48.9432C189.574 49.0568 189.241 49.1136 188.872 49.1136ZM197.077 49.1136C196.623 49.1136 196.222 48.9988 195.874 48.7692C195.526 48.5372 195.253 48.2105 195.057 47.7891C194.86 47.3653 194.762 46.8646 194.762 46.2869C194.762 45.714 194.86 45.2169 195.057 44.7955C195.253 44.3741 195.527 44.0485 195.877 43.8189C196.228 43.5893 196.632 43.4744 197.092 43.4744C197.447 43.4744 197.727 43.5336 197.933 43.652C198.142 43.768 198.3 43.9006 198.409 44.0497C198.52 44.1965 198.607 44.3172 198.668 44.4119H198.739V41.7273H199.577V49H198.768V48.1619H198.668C198.607 48.2614 198.519 48.3868 198.406 48.5384C198.292 48.6875 198.13 48.8213 197.919 48.9396C197.708 49.0556 197.428 49.1136 197.077 49.1136ZM197.191 48.3608C197.527 48.3608 197.811 48.2732 198.043 48.098C198.275 47.9205 198.452 47.6754 198.573 47.3629C198.693 47.0481 198.754 46.6847 198.754 46.2727C198.754 45.8655 198.694 45.5092 198.576 45.2038C198.458 44.8961 198.283 44.657 198.05 44.4865C197.818 44.3137 197.532 44.2273 197.191 44.2273C196.836 44.2273 196.54 44.3184 196.303 44.5007C196.069 44.6806 195.893 44.9257 195.774 45.2358C195.658 45.5436 195.6 45.8892 195.6 46.2727C195.6 46.661 195.659 47.0137 195.778 47.331C195.899 47.6458 196.076 47.8968 196.31 48.0838C196.547 48.2685 196.841 48.3608 197.191 48.3608ZM201.129 49V43.5455H201.967V49H201.129ZM201.555 42.6364C201.392 42.6364 201.251 42.5807 201.132 42.4695C201.016 42.3582 200.958 42.2244 200.958 42.0682C200.958 41.9119 201.016 41.7782 201.132 41.6669C201.251 41.5556 201.392 41.5 201.555 41.5C201.718 41.5 201.858 41.5556 201.974 41.6669C202.092 41.7782 202.151 41.9119 202.151 42.0682C202.151 42.2244 202.092 42.3582 201.974 42.4695C201.858 42.5807 201.718 42.6364 201.555 42.6364ZM207.265 44.767L206.513 44.9801C206.465 44.8546 206.395 44.7327 206.303 44.6143C206.213 44.4936 206.09 44.3942 205.934 44.3161C205.778 44.2379 205.577 44.1989 205.334 44.1989C205 44.1989 204.722 44.2758 204.499 44.4297C204.279 44.5812 204.169 44.7741 204.169 45.0085C204.169 45.2169 204.245 45.3814 204.396 45.5021C204.548 45.6229 204.784 45.7235 205.106 45.804L205.916 46.0028C206.404 46.1212 206.767 46.3023 207.006 46.5462C207.245 46.7876 207.365 47.099 207.365 47.4801C207.365 47.7926 207.275 48.072 207.095 48.3182C206.917 48.5644 206.669 48.7585 206.349 48.9006C206.03 49.0426 205.658 49.1136 205.234 49.1136C204.678 49.1136 204.217 48.9929 203.853 48.7514C203.488 48.5099 203.257 48.1572 203.16 47.6932L203.956 47.4943C204.032 47.7879 204.175 48.008 204.385 48.1548C204.599 48.3016 204.877 48.375 205.22 48.375C205.611 48.375 205.921 48.2921 206.15 48.1264C206.382 47.9583 206.498 47.7571 206.498 47.5227C206.498 47.3333 206.432 47.1747 206.3 47.0469C206.167 46.9167 205.963 46.8196 205.689 46.7557L204.78 46.5426C204.28 46.4242 203.913 46.2408 203.679 45.9922C203.447 45.7412 203.331 45.4276 203.331 45.0511C203.331 44.7434 203.417 44.4711 203.59 44.2344C203.765 43.9976 204.003 43.8118 204.304 43.6768C204.607 43.5419 204.95 43.4744 205.334 43.4744C205.873 43.4744 206.297 43.5928 206.605 43.8295C206.915 44.0663 207.135 44.3788 207.265 44.767ZM208.526 51.0455V43.5455H209.336V44.4119H209.436C209.497 44.3172 209.582 44.1965 209.691 44.0497C209.802 43.9006 209.961 43.768 210.167 43.652C210.375 43.5336 210.657 43.4744 211.012 43.4744C211.471 43.4744 211.876 43.5893 212.227 43.8189C212.577 44.0485 212.851 44.3741 213.047 44.7955C213.244 45.2169 213.342 45.714 213.342 46.2869C213.342 46.8646 213.244 47.3653 213.047 47.7891C212.851 48.2105 212.578 48.5372 212.23 48.7692C211.882 48.9988 211.481 49.1136 211.026 49.1136C210.676 49.1136 210.395 49.0556 210.185 48.9396C209.974 48.8213 209.812 48.6875 209.698 48.5384C209.585 48.3868 209.497 48.2614 209.436 48.1619H209.364V51.0455H208.526ZM209.35 46.2727C209.35 46.6847 209.411 47.0481 209.531 47.3629C209.652 47.6754 209.828 47.9205 210.061 48.098C210.293 48.2732 210.577 48.3608 210.913 48.3608C211.263 48.3608 211.556 48.2685 211.79 48.0838C212.027 47.8968 212.204 47.6458 212.323 47.331C212.443 47.0137 212.504 46.661 212.504 46.2727C212.504 45.8892 212.445 45.5436 212.326 45.2358C212.21 44.9257 212.034 44.6806 211.797 44.5007C211.563 44.3184 211.268 44.2273 210.913 44.2273C210.572 44.2273 210.285 44.3137 210.053 44.4865C209.821 44.657 209.646 44.8961 209.528 45.2038C209.409 45.5092 209.35 45.8655 209.35 46.2727ZM215.358 41.7273V49H214.52V41.7273H215.358ZM218.398 49.1278C218.053 49.1278 217.739 49.0627 217.457 48.9325C217.176 48.8 216.952 48.6094 216.786 48.3608C216.62 48.1098 216.538 47.8068 216.538 47.4517C216.538 47.1392 216.599 46.8859 216.722 46.6918C216.845 46.4953 217.01 46.3414 217.216 46.2301C217.422 46.1188 217.649 46.036 217.898 45.9815C218.149 45.9247 218.401 45.8797 218.654 45.8466C218.985 45.804 219.254 45.772 219.46 45.7507C219.668 45.727 219.82 45.688 219.915 45.6335C220.012 45.5791 220.06 45.4844 220.06 45.3494V45.321C220.06 44.9706 219.964 44.6984 219.773 44.5043C219.583 44.3101 219.296 44.2131 218.91 44.2131C218.51 44.2131 218.196 44.3007 217.969 44.4759C217.741 44.651 217.582 44.8381 217.489 45.0369L216.694 44.7528C216.836 44.4214 217.025 44.1634 217.262 43.9787C217.501 43.7917 217.761 43.6615 218.043 43.5881C218.327 43.5123 218.607 43.4744 218.881 43.4744C219.056 43.4744 219.258 43.4957 219.485 43.5384C219.715 43.5786 219.936 43.6626 220.149 43.7905C220.364 43.9183 220.543 44.1113 220.685 44.3693C220.827 44.6274 220.898 44.973 220.898 45.4062V49H220.06V48.2614H220.018C219.961 48.3797 219.866 48.5064 219.734 48.6413C219.601 48.7763 219.425 48.8911 219.204 48.9858C218.984 49.0805 218.716 49.1278 218.398 49.1278ZM218.526 48.375C218.858 48.375 219.137 48.3099 219.364 48.1797C219.594 48.0495 219.767 47.8814 219.883 47.6754C220.001 47.4695 220.06 47.2528 220.06 47.0256V46.2585C220.025 46.3011 219.947 46.3402 219.826 46.3757C219.708 46.4089 219.57 46.4384 219.414 46.4645C219.26 46.4882 219.11 46.5095 218.963 46.5284C218.819 46.545 218.701 46.5592 218.611 46.571C218.394 46.5994 218.19 46.6456 218.001 46.7095C217.814 46.7711 217.662 46.8646 217.546 46.9901C217.432 47.1132 217.376 47.2812 217.376 47.4943C217.376 47.7855 217.483 48.0057 217.699 48.1548C217.917 48.3016 218.192 48.375 218.526 48.375ZM222.672 51.0455C222.53 51.0455 222.404 51.0336 222.292 51.0099C222.181 50.9886 222.104 50.9673 222.062 50.946L222.275 50.2074C222.478 50.2595 222.658 50.2784 222.814 50.2642C222.971 50.25 223.109 50.1802 223.23 50.0547C223.353 49.9316 223.466 49.7315 223.567 49.4545L223.724 49.0284L221.707 43.5455H222.616L224.121 47.892H224.178L225.684 43.5455H226.593L224.278 49.7955C224.173 50.0772 224.044 50.3104 223.89 50.495C223.737 50.6821 223.558 50.8205 223.354 50.9105C223.153 51.0005 222.926 51.0455 222.672 51.0455ZM63.196 57.5455V58.2557H60.2557V57.5455H63.196ZM61.1364 63V56.7926C61.1364 56.4801 61.2098 56.2197 61.3565 56.0114C61.5033 55.803 61.6939 55.6468 61.9283 55.5426C62.1626 55.4384 62.41 55.3864 62.6705 55.3864C62.8764 55.3864 63.0445 55.4029 63.1747 55.4361C63.3049 55.4692 63.402 55.5 63.4659 55.5284L63.2244 56.2528C63.1818 56.2386 63.1226 56.2209 63.0469 56.1996C62.9735 56.1783 62.8764 56.1676 62.7557 56.1676C62.4787 56.1676 62.2786 56.2375 62.1555 56.3771C62.0348 56.5168 61.9744 56.7216 61.9744 56.9915V63H61.1364ZM64.2706 63V57.5455H65.1086V63H64.2706ZM64.6967 56.6364C64.5333 56.6364 64.3925 56.5807 64.2741 56.4695C64.1581 56.3582 64.1001 56.2244 64.1001 56.0682C64.1001 55.9119 64.1581 55.7782 64.2741 55.6669C64.3925 55.5556 64.5333 55.5 64.6967 55.5C64.86 55.5 64.9997 55.5556 65.1157 55.6669C65.2341 55.7782 65.2933 55.9119 65.2933 56.0682C65.2933 56.2244 65.2341 56.3582 65.1157 56.4695C64.9997 56.5807 64.86 56.6364 64.6967 56.6364ZM67.1686 57.5455L68.4754 59.7756L69.7822 57.5455H70.7482L68.9868 60.2727L70.7482 63H69.7822L68.4754 60.8835L67.1686 63H66.2027L67.9357 60.2727L66.2027 57.5455H67.1686ZM73.9063 63.1136C73.3808 63.1136 72.9274 62.9976 72.5462 62.7656C72.1674 62.5312 71.8751 62.2045 71.6691 61.7855C71.4655 61.3641 71.3637 60.8741 71.3637 60.3153C71.3637 59.7566 71.4655 59.2642 71.6691 58.8381C71.8751 58.4096 72.1615 58.0758 72.5285 57.8366C72.8978 57.5952 73.3287 57.4744 73.8211 57.4744C74.1052 57.4744 74.3857 57.5218 74.6627 57.6165C74.9397 57.7112 75.1918 57.8651 75.4191 58.0781C75.6464 58.2888 75.8275 58.5682 75.9624 58.9162C76.0974 59.2642 76.1648 59.6927 76.1648 60.2017V60.5568H71.9603V59.8324H75.3126C75.3126 59.5246 75.251 59.25 75.1279 59.0085C75.0072 58.767 74.8344 58.5765 74.6094 58.4368C74.3869 58.2971 74.1241 58.2273 73.8211 58.2273C73.4873 58.2273 73.1985 58.3101 72.9546 58.4759C72.7131 58.6392 72.5273 58.8523 72.3971 59.1151C72.2669 59.3778 72.2018 59.6596 72.2018 59.9602V60.4432C72.2018 60.8551 72.2728 61.2043 72.4148 61.4908C72.5593 61.7749 72.7593 61.9915 73.015 62.1406C73.2707 62.2874 73.5678 62.3608 73.9063 62.3608C74.1265 62.3608 74.3254 62.33 74.5029 62.2685C74.6828 62.2045 74.8379 62.1098 74.9681 61.9844C75.0983 61.8565 75.1989 61.6979 75.27 61.5085L76.0796 61.7358C75.9944 62.0104 75.8512 62.2519 75.6499 62.4602C75.4487 62.6662 75.2001 62.8272 74.9042 62.9432C74.6083 63.0568 74.2756 63.1136 73.9063 63.1136ZM81.2033 58.767L80.4505 58.9801C80.4031 58.8546 80.3333 58.7327 80.241 58.6143C80.151 58.4936 80.0279 58.3942 79.8717 58.3161C79.7154 58.2379 79.5154 58.1989 79.2715 58.1989C78.9377 58.1989 78.6595 58.2758 78.437 58.4297C78.2168 58.5812 78.1067 58.7741 78.1067 59.0085C78.1067 59.2169 78.1825 59.3814 78.334 59.5021C78.4855 59.6229 78.7223 59.7235 79.0442 59.804L79.8539 60.0028C80.3416 60.1212 80.705 60.3023 80.9441 60.5462C81.1832 60.7876 81.3028 61.099 81.3028 61.4801C81.3028 61.7926 81.2128 62.072 81.0329 62.3182C80.8553 62.5644 80.6067 62.7585 80.2871 62.9006C79.9675 63.0426 79.5959 63.1136 79.1721 63.1136C78.6157 63.1136 78.1553 62.9929 77.7907 62.7514C77.4261 62.5099 77.1953 62.1572 77.0982 61.6932L77.8937 61.4943C77.9694 61.7879 78.1127 62.008 78.3234 62.1548C78.5364 62.3016 78.8146 62.375 79.1579 62.375C79.5485 62.375 79.8586 62.2921 80.0883 62.1264C80.3203 61.9583 80.4363 61.7571 80.4363 61.5227C80.4363 61.3333 80.37 61.1747 80.2374 61.0469C80.1049 60.9167 79.9013 60.8196 79.6266 60.7557L78.7175 60.5426C78.218 60.4242 77.8511 60.2408 77.6167 59.9922C77.3847 59.7412 77.2687 59.4276 77.2687 59.0511C77.2687 58.7434 77.3551 58.4711 77.5279 58.2344C77.7031 57.9976 77.941 57.8118 78.2417 57.6768C78.5447 57.5419 78.888 57.4744 79.2715 57.4744C79.8113 57.4744 80.2351 57.5928 80.5428 57.8295C80.853 58.0663 81.0731 58.3788 81.2033 58.767ZM87.549 57.5455V58.2557H84.7223V57.5455H87.549ZM85.5461 56.2386H86.3842V61.4375C86.3842 61.6742 86.4185 61.8518 86.4872 61.9702C86.5582 62.0862 86.6482 62.1643 86.7571 62.2045C86.8683 62.2424 86.9855 62.2614 87.1086 62.2614C87.201 62.2614 87.2767 62.2566 87.3359 62.2472C87.3951 62.2353 87.4424 62.2259 87.4779 62.2188L87.6484 62.9716C87.5916 62.9929 87.5123 63.0142 87.4105 63.0355C87.3087 63.0592 87.1797 63.071 87.0234 63.071C86.7867 63.071 86.5547 63.0201 86.3274 62.9183C86.1025 62.8165 85.9154 62.6615 85.7663 62.4531C85.6195 62.2448 85.5461 61.982 85.5461 61.6648V56.2386ZM89.6649 59.7188V63H88.8268V55.7273H89.6649V58.3977H89.7359C89.8637 58.116 90.0555 57.8923 90.3112 57.7266C90.5692 57.5585 90.9125 57.4744 91.341 57.4744C91.7127 57.4744 92.0382 57.549 92.3176 57.6982C92.5969 57.8449 92.8136 58.071 92.9674 58.3764C93.1237 58.6795 93.2018 59.0653 93.2018 59.5341V63H92.3637V59.5909C92.3637 59.1577 92.2513 58.8227 92.0264 58.5859C91.8038 58.3468 91.4949 58.2273 91.0995 58.2273C90.8249 58.2273 90.5787 58.2853 90.3609 58.4013C90.1455 58.5173 89.975 58.6866 89.8495 58.9091C89.7264 59.1316 89.6649 59.4015 89.6649 59.7188ZM96.9219 63.1136C96.3964 63.1136 95.943 62.9976 95.5619 62.7656C95.1831 62.5312 94.8907 62.2045 94.6847 61.7855C94.4811 61.3641 94.3793 60.8741 94.3793 60.3153C94.3793 59.7566 94.4811 59.2642 94.6847 58.8381C94.8907 58.4096 95.1772 58.0758 95.5441 57.8366C95.9134 57.5952 96.3443 57.4744 96.8367 57.4744C97.1208 57.4744 97.4014 57.5218 97.6783 57.6165C97.9553 57.7112 98.2075 57.8651 98.4347 58.0781C98.662 58.2888 98.8431 58.5682 98.9781 58.9162C99.113 59.2642 99.1805 59.6927 99.1805 60.2017V60.5568H94.9759V59.8324H98.3282C98.3282 59.5246 98.2666 59.25 98.1435 59.0085C98.0228 58.767 97.85 58.5765 97.6251 58.4368C97.4025 58.2971 97.1397 58.2273 96.8367 58.2273C96.5029 58.2273 96.2141 58.3101 95.9702 58.4759C95.7288 58.6392 95.5429 58.8523 95.4127 59.1151C95.2825 59.3778 95.2174 59.6596 95.2174 59.9602V60.4432C95.2174 60.8551 95.2884 61.2043 95.4305 61.4908C95.5749 61.7749 95.7749 61.9915 96.0306 62.1406C96.2863 62.2874 96.5834 62.3608 96.9219 62.3608C97.1421 62.3608 97.341 62.33 97.5185 62.2685C97.6985 62.2045 97.8535 62.1098 97.9837 61.9844C98.1139 61.8565 98.2146 61.6979 98.2856 61.5085L99.0952 61.7358C99.01 62.0104 98.8668 62.2519 98.6656 62.4602C98.4643 62.6662 98.2157 62.8272 97.9198 62.9432C97.6239 63.0568 97.2913 63.1136 96.9219 63.1136ZM105.284 63.1136C104.791 63.1136 104.359 62.9964 103.988 62.7621C103.618 62.5277 103.329 62.1998 103.121 61.7784C102.915 61.357 102.812 60.8646 102.812 60.3011C102.812 59.733 102.915 59.237 103.121 58.8132C103.329 58.3894 103.618 58.0604 103.988 57.826C104.359 57.5916 104.791 57.4744 105.284 57.4744C105.776 57.4744 106.207 57.5916 106.576 57.826C106.948 58.0604 107.237 58.3894 107.443 58.8132C107.651 59.237 107.755 59.733 107.755 60.3011C107.755 60.8646 107.651 61.357 107.443 61.7784C107.237 62.1998 106.948 62.5277 106.576 62.7621C106.207 62.9964 105.776 63.1136 105.284 63.1136ZM105.284 62.3608C105.658 62.3608 105.966 62.2649 106.207 62.0732C106.449 61.8814 106.627 61.6293 106.743 61.3168C106.859 61.0043 106.917 60.6657 106.917 60.3011C106.917 59.9366 106.859 59.5968 106.743 59.282C106.627 58.9671 106.449 58.7126 106.207 58.5185C105.966 58.3243 105.658 58.2273 105.284 58.2273C104.91 58.2273 104.602 58.3243 104.36 58.5185C104.119 58.7126 103.94 58.9671 103.824 59.282C103.708 59.5968 103.65 59.9366 103.65 60.3011C103.65 60.6657 103.708 61.0043 103.824 61.3168C103.94 61.6293 104.119 61.8814 104.36 62.0732C104.602 62.2649 104.91 62.3608 105.284 62.3608ZM113.2 57.5455L111.182 63H110.33L108.313 57.5455H109.222L110.728 61.892H110.785L112.29 57.5455H113.2ZM116.297 63.1136C115.772 63.1136 115.318 62.9976 114.937 62.7656C114.558 62.5312 114.266 62.2045 114.06 61.7855C113.857 61.3641 113.755 60.8741 113.755 60.3153C113.755 59.7566 113.857 59.2642 114.06 58.8381C114.266 58.4096 114.553 58.0758 114.919 57.8366C115.289 57.5952 115.72 57.4744 116.212 57.4744C116.496 57.4744 116.777 57.5218 117.054 57.6165C117.331 57.7112 117.583 57.8651 117.81 58.0781C118.037 58.2888 118.219 58.5682 118.353 58.9162C118.488 59.2642 118.556 59.6927 118.556 60.2017V60.5568H114.351V59.8324H117.704C117.704 59.5246 117.642 59.25 117.519 59.0085C117.398 58.767 117.225 58.5765 117 58.4368C116.778 58.2971 116.515 58.2273 116.212 58.2273C115.878 58.2273 115.589 58.3101 115.346 58.4759C115.104 58.6392 114.918 58.8523 114.788 59.1151C114.658 59.3778 114.593 59.6596 114.593 59.9602V60.4432C114.593 60.8551 114.664 61.2043 114.806 61.4908C114.95 61.7749 115.15 61.9915 115.406 62.1406C115.662 62.2874 115.959 62.3608 116.297 62.3608C116.518 62.3608 116.716 62.33 116.894 62.2685C117.074 62.2045 117.229 62.1098 117.359 61.9844C117.489 61.8565 117.59 61.6979 117.661 61.5085L118.471 61.7358C118.385 62.0104 118.242 62.2519 118.041 62.4602C117.84 62.6662 117.591 62.8272 117.295 62.9432C116.999 63.0568 116.667 63.1136 116.297 63.1136ZM119.731 63V57.5455H120.54V58.3693H120.597C120.697 58.0994 120.877 57.8804 121.137 57.7124C121.397 57.5443 121.691 57.4602 122.018 57.4602C122.079 57.4602 122.156 57.4614 122.248 57.4638C122.341 57.4661 122.411 57.4697 122.458 57.4744V58.3267C122.43 58.3196 122.364 58.3089 122.263 58.2947C122.163 58.2782 122.058 58.2699 121.947 58.2699C121.681 58.2699 121.445 58.3255 121.236 58.4368C121.03 58.5457 120.867 58.6972 120.746 58.8913C120.628 59.0831 120.569 59.3021 120.569 59.5483V63H119.731ZM126.122 57.5455V58.2557H123.182V57.5455H126.122ZM124.063 63V56.7926C124.063 56.4801 124.136 56.2197 124.283 56.0114C124.429 55.803 124.62 55.6468 124.854 55.5426C125.089 55.4384 125.336 55.3864 125.597 55.3864C125.803 55.3864 125.971 55.4029 126.101 55.4361C126.231 55.4692 126.328 55.5 126.392 55.5284L126.151 56.2528C126.108 56.2386 126.049 56.2209 125.973 56.1996C125.9 56.1783 125.803 56.1676 125.682 56.1676C125.405 56.1676 125.205 56.2375 125.082 56.3771C124.961 56.5168 124.901 56.7216 124.901 56.9915V63H124.063ZM128.035 55.7273V63H127.197V55.7273H128.035ZM131.686 63.1136C131.193 63.1136 130.761 62.9964 130.39 62.7621C130.02 62.5277 129.731 62.1998 129.523 61.7784C129.317 61.357 129.214 60.8646 129.214 60.3011C129.214 59.733 129.317 59.237 129.523 58.8132C129.731 58.3894 130.02 58.0604 130.39 57.826C130.761 57.5916 131.193 57.4744 131.686 57.4744C132.178 57.4744 132.609 57.5916 132.978 57.826C133.35 58.0604 133.639 58.3894 133.845 58.8132C134.053 59.237 134.157 59.733 134.157 60.3011C134.157 60.8646 134.053 61.357 133.845 61.7784C133.639 62.1998 133.35 62.5277 132.978 62.7621C132.609 62.9964 132.178 63.1136 131.686 63.1136ZM131.686 62.3608C132.06 62.3608 132.368 62.2649 132.609 62.0732C132.85 61.8814 133.029 61.6293 133.145 61.3168C133.261 61.0043 133.319 60.6657 133.319 60.3011C133.319 59.9366 133.261 59.5968 133.145 59.282C133.029 58.9671 132.85 58.7126 132.609 58.5185C132.368 58.3243 132.06 58.2273 131.686 58.2273C131.312 58.2273 131.004 58.3243 130.762 58.5185C130.521 58.7126 130.342 58.9671 130.226 59.282C130.11 59.5968 130.052 59.9366 130.052 60.3011C130.052 60.6657 130.11 61.0043 130.226 61.3168C130.342 61.6293 130.521 61.8814 130.762 62.0732C131.004 62.2649 131.312 62.3608 131.686 62.3608ZM136.387 63L134.725 57.5455H135.606L136.785 61.7216H136.841L138.006 57.5455H138.901L140.052 61.7074H140.108L141.287 57.5455H142.168L140.506 63H139.682L138.489 58.8097H138.404L137.211 63H136.387ZM148.318 57.5455V58.2557H145.377V57.5455H148.318ZM146.258 63V56.7926C146.258 56.4801 146.331 56.2197 146.478 56.0114C146.625 55.803 146.815 55.6468 147.05 55.5426C147.284 55.4384 147.532 55.3864 147.792 55.3864C147.998 55.3864 148.166 55.4029 148.296 55.4361C148.426 55.4692 148.523 55.5 148.587 55.5284L148.346 56.2528C148.303 56.2386 148.244 56.2209 148.168 56.1996C148.095 56.1783 147.998 56.1676 147.877 56.1676C147.6 56.1676 147.4 56.2375 147.277 56.3771C147.156 56.5168 147.096 56.7216 147.096 56.9915V63H146.258ZM151.383 63.1136C150.891 63.1136 150.459 62.9964 150.087 62.7621C149.718 62.5277 149.429 62.1998 149.221 61.7784C149.015 61.357 148.912 60.8646 148.912 60.3011C148.912 59.733 149.015 59.237 149.221 58.8132C149.429 58.3894 149.718 58.0604 150.087 57.826C150.459 57.5916 150.891 57.4744 151.383 57.4744C151.876 57.4744 152.307 57.5916 152.676 57.826C153.048 58.0604 153.336 58.3894 153.542 58.8132C153.751 59.237 153.855 59.733 153.855 60.3011C153.855 60.8646 153.751 61.357 153.542 61.7784C153.336 62.1998 153.048 62.5277 152.676 62.7621C152.307 62.9964 151.876 63.1136 151.383 63.1136ZM151.383 62.3608C151.757 62.3608 152.065 62.2649 152.307 62.0732C152.548 61.8814 152.727 61.6293 152.843 61.3168C152.959 61.0043 153.017 60.6657 153.017 60.3011C153.017 59.9366 152.959 59.5968 152.843 59.282C152.727 58.9671 152.548 58.7126 152.307 58.5185C152.065 58.3243 151.757 58.2273 151.383 58.2273C151.009 58.2273 150.702 58.3243 150.46 58.5185C150.219 58.7126 150.04 58.9671 149.924 59.282C149.808 59.5968 149.75 59.9366 149.75 60.3011C149.75 60.6657 149.808 61.0043 149.924 61.3168C150.04 61.6293 150.219 61.8814 150.46 62.0732C150.702 62.2649 151.009 62.3608 151.383 62.3608ZM155.034 63V57.5455H155.844V58.3693H155.901C156 58.0994 156.18 57.8804 156.44 57.7124C156.701 57.5443 156.994 57.4602 157.321 57.4602C157.383 57.4602 157.46 57.4614 157.552 57.4638C157.644 57.4661 157.714 57.4697 157.762 57.4744V58.3267C157.733 58.3196 157.668 58.3089 157.566 58.2947C157.467 58.2782 157.361 58.2699 157.25 58.2699C156.985 58.2699 156.748 58.3255 156.54 58.4368C156.334 58.5457 156.171 58.6972 156.05 58.8913C155.931 59.0831 155.872 59.3021 155.872 59.5483V63H155.034ZM166.453 58C166.375 57.7609 166.272 57.5466 166.144 57.3572C166.018 57.1655 165.868 57.0021 165.693 56.8672C165.52 56.7322 165.323 56.6293 165.103 56.5582C164.883 56.4872 164.642 56.4517 164.379 56.4517C163.948 56.4517 163.556 56.563 163.203 56.7855C162.851 57.008 162.57 57.3359 162.362 57.7692C162.153 58.2024 162.049 58.7339 162.049 59.3636C162.049 59.9934 162.155 60.5249 162.365 60.9581C162.576 61.3913 162.861 61.7192 163.221 61.9418C163.581 62.1643 163.986 62.2756 164.436 62.2756C164.852 62.2756 165.219 62.1868 165.536 62.0092C165.856 61.8293 166.105 61.576 166.282 61.2493C166.462 60.9202 166.552 60.5331 166.552 60.0881L166.822 60.1449H164.634V59.3636H167.404V60.1449C167.404 60.7438 167.277 61.2647 167.021 61.7074C166.768 62.1501 166.417 62.4934 165.97 62.7372C165.525 62.9787 165.013 63.0994 164.436 63.0994C163.792 63.0994 163.226 62.9479 162.738 62.6449C162.253 62.3419 161.874 61.911 161.602 61.3523C161.332 60.7936 161.197 60.1307 161.197 59.3636C161.197 58.7884 161.274 58.2711 161.428 57.8118C161.584 57.3501 161.804 56.9571 162.088 56.6328C162.372 56.3085 162.709 56.0599 163.097 55.8871C163.485 55.7143 163.912 55.6278 164.379 55.6278C164.762 55.6278 165.12 55.6858 165.451 55.8018C165.785 55.9155 166.082 56.0777 166.343 56.2884C166.605 56.4967 166.824 56.7464 167 57.0376C167.175 57.3265 167.295 57.6473 167.362 58H166.453ZM170.986 63.1136C170.46 63.1136 170.007 62.9976 169.626 62.7656C169.247 62.5312 168.955 62.2045 168.749 61.7855C168.545 61.3641 168.443 60.8741 168.443 60.3153C168.443 59.7566 168.545 59.2642 168.749 58.8381C168.955 58.4096 169.241 58.0758 169.608 57.8366C169.977 57.5952 170.408 57.4744 170.901 57.4744C171.185 57.4744 171.465 57.5218 171.742 57.6165C172.019 57.7112 172.272 57.8651 172.499 58.0781C172.726 58.2888 172.907 58.5682 173.042 58.9162C173.177 59.2642 173.245 59.6927 173.245 60.2017V60.5568H169.04V59.8324H172.392C172.392 59.5246 172.331 59.25 172.208 59.0085C172.087 58.767 171.914 58.5765 171.689 58.4368C171.467 58.2971 171.204 58.2273 170.901 58.2273C170.567 58.2273 170.278 58.3101 170.034 58.4759C169.793 58.6392 169.607 58.8523 169.477 59.1151C169.347 59.3778 169.281 59.6596 169.281 59.9602V60.4432C169.281 60.8551 169.352 61.2043 169.495 61.4908C169.639 61.7749 169.839 61.9915 170.095 62.1406C170.35 62.2874 170.647 62.3608 170.986 62.3608C171.206 62.3608 171.405 62.33 171.583 62.2685C171.763 62.2045 171.918 62.1098 172.048 61.9844C172.178 61.8565 172.279 61.6979 172.35 61.5085L173.159 61.7358C173.074 62.0104 172.931 62.2519 172.73 62.4602C172.528 62.6662 172.28 62.8272 171.984 62.9432C171.688 63.0568 171.355 63.1136 170.986 63.1136ZM174.419 63V57.5455H175.229V58.3693H175.286C175.385 58.0994 175.565 57.8804 175.826 57.7124C176.086 57.5443 176.38 57.4602 176.706 57.4602C176.768 57.4602 176.845 57.4614 176.937 57.4638C177.029 57.4661 177.099 57.4697 177.147 57.4744V58.3267C177.118 58.3196 177.053 58.3089 176.951 58.2947C176.852 58.2782 176.747 58.2699 176.635 58.2699C176.37 58.2699 176.133 58.3255 175.925 58.4368C175.719 58.5457 175.556 58.6972 175.435 58.8913C175.317 59.0831 175.257 59.3021 175.257 59.5483V63H174.419ZM178.04 63V57.5455H178.85V58.3977H178.921C179.034 58.1065 179.218 57.8804 179.471 57.7195C179.725 57.5561 180.029 57.4744 180.384 57.4744C180.744 57.4744 181.043 57.5561 181.282 57.7195C181.524 57.8804 181.712 58.1065 181.847 58.3977H181.904C182.043 58.116 182.253 57.8923 182.532 57.7266C182.812 57.5585 183.147 57.4744 183.537 57.4744C184.025 57.4744 184.424 57.6271 184.734 57.9325C185.044 58.2356 185.199 58.7079 185.199 59.3494V63H184.361V59.3494C184.361 58.947 184.251 58.6593 184.031 58.4865C183.811 58.3137 183.551 58.2273 183.253 58.2273C182.87 58.2273 182.573 58.3433 182.362 58.5753C182.151 58.8049 182.046 59.0961 182.046 59.4489V63H181.194V59.2642C181.194 58.9541 181.093 58.7043 180.892 58.5149C180.69 58.3232 180.431 58.2273 180.114 58.2273C179.896 58.2273 179.693 58.2853 179.503 58.4013C179.316 58.5173 179.165 58.6783 179.049 58.8842C178.935 59.0878 178.878 59.3234 178.878 59.5909V63H178.04ZM188.237 63.1278C187.891 63.1278 187.577 63.0627 187.296 62.9325C187.014 62.8 186.79 62.6094 186.624 62.3608C186.459 62.1098 186.376 61.8068 186.376 61.4517C186.376 61.1392 186.437 60.8859 186.56 60.6918C186.684 60.4953 186.848 60.3414 187.054 60.2301C187.26 60.1188 187.487 60.036 187.736 59.9815C187.987 59.9247 188.239 59.8797 188.492 59.8466C188.824 59.804 189.092 59.772 189.298 59.7507C189.507 59.727 189.658 59.688 189.753 59.6335C189.85 59.5791 189.899 59.4844 189.899 59.3494V59.321C189.899 58.9706 189.803 58.6984 189.611 58.5043C189.422 58.3101 189.134 58.2131 188.748 58.2131C188.348 58.2131 188.034 58.3007 187.807 58.4759C187.58 58.651 187.42 58.8381 187.328 59.0369L186.532 58.7528C186.674 58.4214 186.864 58.1634 187.1 57.9787C187.339 57.7917 187.6 57.6615 187.882 57.5881C188.166 57.5123 188.445 57.4744 188.72 57.4744C188.895 57.4744 189.096 57.4957 189.323 57.5384C189.553 57.5786 189.774 57.6626 189.987 57.7905C190.203 57.9183 190.382 58.1113 190.524 58.3693C190.666 58.6274 190.737 58.973 190.737 59.4062V63H189.899V62.2614H189.856C189.799 62.3797 189.704 62.5064 189.572 62.6413C189.439 62.7763 189.263 62.8911 189.043 62.9858C188.823 63.0805 188.554 63.1278 188.237 63.1278ZM188.364 62.375C188.696 62.375 188.975 62.3099 189.203 62.1797C189.432 62.0495 189.605 61.8814 189.721 61.6754C189.839 61.4695 189.899 61.2528 189.899 61.0256V60.2585C189.863 60.3011 189.785 60.3402 189.664 60.3757C189.546 60.4089 189.408 60.4384 189.252 60.4645C189.098 60.4882 188.948 60.5095 188.801 60.5284C188.657 60.545 188.54 60.5592 188.45 60.571C188.232 60.5994 188.028 60.6456 187.839 60.7095C187.652 60.7711 187.5 60.8646 187.384 60.9901C187.271 61.1132 187.214 61.2812 187.214 61.4943C187.214 61.7855 187.322 62.0057 187.537 62.1548C187.755 62.3016 188.031 62.375 188.364 62.375ZM193.004 59.7188V63H192.166V57.5455H192.976V58.3977H193.047C193.175 58.1207 193.369 57.8982 193.629 57.7301C193.89 57.5597 194.226 57.4744 194.638 57.4744C195.007 57.4744 195.33 57.5502 195.607 57.7017C195.884 57.8509 196.1 58.0781 196.254 58.3835C196.408 58.6866 196.484 59.0701 196.484 59.5341V63H195.646V59.5909C195.646 59.1624 195.535 58.8286 195.313 58.5895C195.09 58.348 194.785 58.2273 194.396 58.2273C194.129 58.2273 193.89 58.2853 193.679 58.4013C193.471 58.5173 193.306 58.6866 193.185 58.9091C193.065 59.1316 193.004 59.4015 193.004 59.7188ZM202.233 63.1278C201.888 63.1278 201.574 63.0627 201.292 62.9325C201.011 62.8 200.787 62.6094 200.621 62.3608C200.456 62.1098 200.373 61.8068 200.373 61.4517C200.373 61.1392 200.434 60.8859 200.557 60.6918C200.68 60.4953 200.845 60.3414 201.051 60.2301C201.257 60.1188 201.484 60.036 201.733 59.9815C201.984 59.9247 202.236 59.8797 202.489 59.8466C202.821 59.804 203.089 59.772 203.295 59.7507C203.504 59.727 203.655 59.688 203.75 59.6335C203.847 59.5791 203.895 59.4844 203.895 59.3494V59.321C203.895 58.9706 203.8 58.6984 203.608 58.5043C203.418 58.3101 203.131 58.2131 202.745 58.2131C202.345 58.2131 202.031 58.3007 201.804 58.4759C201.577 58.651 201.417 58.8381 201.324 59.0369L200.529 58.7528C200.671 58.4214 200.86 58.1634 201.097 57.9787C201.336 57.7917 201.597 57.6615 201.878 57.5881C202.162 57.5123 202.442 57.4744 202.716 57.4744C202.892 57.4744 203.093 57.4957 203.32 57.5384C203.55 57.5786 203.771 57.6626 203.984 57.7905C204.2 57.9183 204.378 58.1113 204.52 58.3693C204.662 58.6274 204.733 58.973 204.733 59.4062V63H203.895V62.2614H203.853C203.796 62.3797 203.701 62.5064 203.569 62.6413C203.436 62.7763 203.26 62.8911 203.04 62.9858C202.819 63.0805 202.551 63.1278 202.233 63.1278ZM202.361 62.375C202.693 62.375 202.972 62.3099 203.199 62.1797C203.429 62.0495 203.602 61.8814 203.718 61.6754C203.836 61.4695 203.895 61.2528 203.895 61.0256V60.2585C203.86 60.3011 203.782 60.3402 203.661 60.3757C203.543 60.4089 203.405 60.4384 203.249 60.4645C203.095 60.4882 202.945 60.5095 202.798 60.5284C202.654 60.545 202.537 60.5592 202.447 60.571C202.229 60.5994 202.025 60.6456 201.836 60.7095C201.649 60.7711 201.497 60.8646 201.381 60.9901C201.268 61.1132 201.211 61.2812 201.211 61.4943C201.211 61.7855 201.318 62.0057 201.534 62.1548C201.752 62.3016 202.028 62.375 202.361 62.375ZM207.001 59.7188V63H206.163V57.5455H206.973V58.3977H207.044C207.172 58.1207 207.366 57.8982 207.626 57.7301C207.887 57.5597 208.223 57.4744 208.635 57.4744C209.004 57.4744 209.327 57.5502 209.604 57.7017C209.881 57.8509 210.097 58.0781 210.25 58.3835C210.404 58.6866 210.481 59.0701 210.481 59.5341V63H209.643V59.5909C209.643 59.1624 209.532 58.8286 209.309 58.5895C209.087 58.348 208.782 58.2273 208.393 58.2273C208.126 58.2273 207.887 58.2853 207.676 58.4013C207.468 58.5173 207.303 58.6866 207.182 58.9091C207.062 59.1316 207.001 59.4015 207.001 59.7188ZM213.972 63.1136C213.518 63.1136 213.117 62.9988 212.769 62.7692C212.421 62.5372 212.148 62.2105 211.952 61.7891C211.755 61.3653 211.657 60.8646 211.657 60.2869C211.657 59.714 211.755 59.2169 211.952 58.7955C212.148 58.3741 212.422 58.0485 212.772 57.8189C213.123 57.5893 213.527 57.4744 213.987 57.4744C214.342 57.4744 214.622 57.5336 214.828 57.652C215.037 57.768 215.195 57.9006 215.304 58.0497C215.415 58.1965 215.502 58.3172 215.563 58.4119H215.634V55.7273H216.472V63H215.663V62.1619H215.563C215.502 62.2614 215.414 62.3868 215.301 62.5384C215.187 62.6875 215.025 62.8213 214.814 62.9396C214.603 63.0556 214.323 63.1136 213.972 63.1136ZM214.086 62.3608C214.422 62.3608 214.706 62.2732 214.938 62.098C215.17 61.9205 215.347 61.6754 215.467 61.3629C215.588 61.0481 215.649 60.6847 215.649 60.2727C215.649 59.8655 215.589 59.5092 215.471 59.2038C215.353 58.8961 215.177 58.657 214.945 58.4865C214.713 58.3137 214.427 58.2273 214.086 58.2273C213.731 58.2273 213.435 58.3184 213.198 58.5007C212.964 58.6806 212.788 58.9257 212.669 59.2358C212.553 59.5436 212.495 59.8892 212.495 60.2727C212.495 60.661 212.554 61.0137 212.673 61.331C212.793 61.6458 212.971 61.8968 213.205 62.0838C213.442 62.2685 213.736 62.3608 214.086 62.3608ZM64.858 71.5455C64.8153 71.1856 64.6425 70.9062 64.3395 70.7074C64.0365 70.5085 63.6648 70.4091 63.2244 70.4091C62.9025 70.4091 62.6207 70.4612 62.3793 70.5653C62.1402 70.6695 61.9531 70.8127 61.8182 70.995C61.6856 71.1773 61.6193 71.3845 61.6193 71.6165C61.6193 71.8106 61.6655 71.9775 61.7578 72.1172C61.8525 72.2545 61.9732 72.3693 62.12 72.4616C62.2668 72.5516 62.4207 72.6262 62.5817 72.6854C62.7427 72.7422 62.8906 72.7884 63.0256 72.8239L63.7642 73.0227C63.9536 73.0724 64.1643 73.1411 64.3963 73.2287C64.6307 73.3163 64.8544 73.4358 65.0675 73.5874C65.2829 73.7365 65.4605 73.9283 65.6001 74.1626C65.7398 74.397 65.8097 74.6847 65.8097 75.0256C65.8097 75.4186 65.7067 75.7737 65.5007 76.0909C65.2971 76.4081 64.9988 76.6603 64.6058 76.8473C64.2152 77.0343 63.7405 77.1278 63.1818 77.1278C62.661 77.1278 62.21 77.0438 61.8288 76.8757C61.45 76.7076 61.1518 76.4732 60.9339 76.1726C60.7185 75.8719 60.5966 75.5227 60.5682 75.125H61.4773C61.5009 75.3996 61.5933 75.6269 61.7543 75.8068C61.9176 75.9844 62.1236 76.117 62.3722 76.2045C62.6231 76.2898 62.893 76.3324 63.1818 76.3324C63.518 76.3324 63.8198 76.2779 64.0874 76.169C64.3549 76.0578 64.5668 75.9039 64.723 75.7074C64.8793 75.5085 64.9574 75.2765 64.9574 75.0114C64.9574 74.7699 64.8899 74.5734 64.755 74.4219C64.62 74.2704 64.4425 74.1473 64.2223 74.0526C64.0021 73.9579 63.7642 73.875 63.5085 73.804L62.6136 73.5483C62.0455 73.3849 61.5956 73.1518 61.2642 72.8487C60.9328 72.5457 60.767 72.1491 60.767 71.6591C60.767 71.2519 60.8771 70.8968 61.0973 70.5938C61.3198 70.2884 61.6181 70.0516 61.9922 69.8835C62.3686 69.7131 62.7888 69.6278 63.2528 69.6278C63.7216 69.6278 64.1383 69.7119 64.5028 69.88C64.8674 70.0457 65.1563 70.273 65.3693 70.5618C65.5848 70.8506 65.6984 71.1785 65.7102 71.5455H64.858ZM67.044 79.0455V71.5455H67.8537V72.4119H67.9531C68.0146 72.3172 68.0999 72.1965 68.2088 72.0497C68.32 71.9006 68.4787 71.768 68.6846 71.652C68.893 71.5336 69.1747 71.4744 69.5298 71.4744C69.9891 71.4744 70.3939 71.5893 70.7443 71.8189C71.0947 72.0485 71.3681 72.3741 71.5646 72.7955C71.7611 73.2169 71.8593 73.714 71.8593 74.2869C71.8593 74.8646 71.7611 75.3653 71.5646 75.7891C71.3681 76.2105 71.0958 76.5372 70.7478 76.7692C70.3998 76.9988 69.9985 77.1136 69.544 77.1136C69.1936 77.1136 68.9131 77.0556 68.7024 76.9396C68.4917 76.8213 68.3295 76.6875 68.2159 76.5384C68.1022 76.3868 68.0146 76.2614 67.9531 76.1619H67.8821V79.0455H67.044ZM67.8679 74.2727C67.8679 74.6847 67.9282 75.0481 68.049 75.3629C68.1697 75.6754 68.3461 75.9205 68.5781 76.098C68.8101 76.2732 69.0942 76.3608 69.4304 76.3608C69.7807 76.3608 70.0731 76.2685 70.3075 76.0838C70.5442 75.8968 70.7218 75.6458 70.8402 75.331C70.9609 75.0137 71.0213 74.661 71.0213 74.2727C71.0213 73.8892 70.9621 73.5436 70.8437 73.2358C70.7277 72.9257 70.5513 72.6806 70.3146 72.5007C70.0802 72.3184 69.7855 72.2273 69.4304 72.2273C69.0895 72.2273 68.803 72.3137 68.571 72.4865C68.339 72.657 68.1638 72.8961 68.0454 73.2038C67.927 73.5092 67.8679 73.8655 67.8679 74.2727ZM74.6429 77.1278C74.2972 77.1278 73.9835 77.0627 73.7018 76.9325C73.4201 76.8 73.1964 76.6094 73.0306 76.3608C72.8649 76.1098 72.7821 75.8068 72.7821 75.4517C72.7821 75.1392 72.8436 74.8859 72.9667 74.6918C73.0898 74.4953 73.2544 74.3414 73.4603 74.2301C73.6663 74.1188 73.8936 74.036 74.1422 73.9815C74.3931 73.9247 74.6452 73.8797 74.8985 73.8466C75.23 73.804 75.4987 73.772 75.7047 73.7507C75.913 73.727 76.0645 73.688 76.1592 73.6335C76.2563 73.5791 76.3048 73.4844 76.3048 73.3494V73.321C76.3048 72.9706 76.2089 72.6984 76.0172 72.5043C75.8278 72.3101 75.5401 72.2131 75.1542 72.2131C74.7541 72.2131 74.4404 72.3007 74.2132 72.4759C73.9859 72.651 73.8261 72.8381 73.7338 73.0369L72.9383 72.7528C73.0804 72.4214 73.2698 72.1634 73.5065 71.9787C73.7456 71.7917 74.006 71.6615 74.2877 71.5881C74.5718 71.5123 74.8512 71.4744 75.1258 71.4744C75.301 71.4744 75.5022 71.4957 75.7295 71.5384C75.9592 71.5786 76.1805 71.6626 76.3936 71.7905C76.609 71.9183 76.7877 72.1113 76.9298 72.3693C77.0718 72.6274 77.1429 72.973 77.1429 73.4062V77H76.3048V76.2614H76.2622C76.2054 76.3797 76.1107 76.5064 75.9781 76.6413C75.8455 76.7763 75.6691 76.8911 75.449 76.9858C75.2288 77.0805 74.9601 77.1278 74.6429 77.1278ZM74.7707 76.375C75.1021 76.375 75.3815 76.3099 75.6088 76.1797C75.8384 76.0495 76.0112 75.8814 76.1272 75.6754C76.2456 75.4695 76.3048 75.2528 76.3048 75.0256V74.2585C76.2693 74.3011 76.1912 74.3402 76.0704 74.3757C75.952 74.4089 75.8147 74.4384 75.6585 74.4645C75.5046 74.4882 75.3543 74.5095 75.2075 74.5284C75.0631 74.545 74.9459 74.5592 74.8559 74.571C74.6381 74.5994 74.4345 74.6456 74.2451 74.7095C74.0581 74.7711 73.9066 74.8646 73.7906 74.9901C73.677 75.1132 73.6201 75.2812 73.6201 75.4943C73.6201 75.7855 73.7279 76.0057 73.9433 76.1548C74.1611 76.3016 74.4369 76.375 74.7707 76.375ZM79.4106 73.7188V77H78.5725V71.5455H79.3822V72.3977H79.4532C79.581 72.1207 79.7752 71.8982 80.0356 71.7301C80.296 71.5597 80.6322 71.4744 81.0441 71.4744C81.4134 71.4744 81.7366 71.5502 82.0136 71.7017C82.2906 71.8509 82.506 72.0781 82.6599 72.3835C82.8138 72.6866 82.8907 73.0701 82.8907 73.5341V77H82.0526V73.5909C82.0526 73.1624 81.9414 72.8286 81.7188 72.5895C81.4963 72.348 81.1909 72.2273 80.8026 72.2273C80.5351 72.2273 80.296 72.2853 80.0853 72.4013C79.877 72.5173 79.7124 72.6866 79.5917 72.9091C79.471 73.1316 79.4106 73.4015 79.4106 73.7188ZM84.3221 77V71.5455H85.1602V77H84.3221ZM84.7483 70.6364C84.5849 70.6364 84.444 70.5807 84.3257 70.4695C84.2097 70.3582 84.1517 70.2244 84.1517 70.0682C84.1517 69.9119 84.2097 69.7782 84.3257 69.6669C84.444 69.5556 84.5849 69.5 84.7483 69.5C84.9116 69.5 85.0513 69.5556 85.1673 69.6669C85.2857 69.7782 85.3449 69.9119 85.3449 70.0682C85.3449 70.2244 85.2857 70.3582 85.1673 70.4695C85.0513 70.5807 84.9116 70.6364 84.7483 70.6364ZM90.4588 72.767L89.706 72.9801C89.6586 72.8546 89.5888 72.7327 89.4964 72.6143C89.4065 72.4936 89.2834 72.3942 89.1271 72.3161C88.9709 72.2379 88.7708 72.1989 88.527 72.1989C88.1932 72.1989 87.915 72.2758 87.6925 72.4297C87.4723 72.5812 87.3622 72.7741 87.3622 73.0085C87.3622 73.2169 87.438 73.3814 87.5895 73.5021C87.741 73.6229 87.9777 73.7235 88.2997 73.804L89.1094 74.0028C89.5971 74.1212 89.9605 74.3023 90.1996 74.5462C90.4387 74.7876 90.5582 75.099 90.5582 75.4801C90.5582 75.7926 90.4683 76.072 90.2884 76.3182C90.1108 76.5644 89.8622 76.7585 89.5426 76.9006C89.223 77.0426 88.8513 77.1136 88.4276 77.1136C87.8712 77.1136 87.4107 76.9929 87.0462 76.7514C86.6816 76.5099 86.4508 76.1572 86.3537 75.6932L87.1491 75.4943C87.2249 75.7879 87.3681 76.008 87.5788 76.1548C87.7919 76.3016 88.0701 76.375 88.4134 76.375C88.804 76.375 89.1141 76.2921 89.3438 76.1264C89.5758 75.9583 89.6918 75.7571 89.6918 75.5227C89.6918 75.3333 89.6255 75.1747 89.4929 75.0469C89.3603 74.9167 89.1567 74.8196 88.8821 74.7557L87.973 74.5426C87.4735 74.4242 87.1065 74.2408 86.8722 73.9922C86.6402 73.7412 86.5241 73.4276 86.5241 73.0511C86.5241 72.7434 86.6106 72.4711 86.7834 72.2344C86.9586 71.9976 87.1965 71.8118 87.4972 71.6768C87.8002 71.5419 88.1435 71.4744 88.527 71.4744C89.0668 71.4744 89.4905 71.5928 89.7983 71.8295C90.1084 72.0663 90.3286 72.3788 90.4588 72.767ZM92.5578 73.7188V77H91.7198V69.7273H92.5578V72.3977H92.6289C92.7567 72.116 92.9485 71.8923 93.2042 71.7266C93.4622 71.5585 93.8055 71.4744 94.234 71.4744C94.6057 71.4744 94.9312 71.549 95.2105 71.6982C95.4899 71.8449 95.7065 72.071 95.8604 72.3764C96.0167 72.6795 96.0948 73.0653 96.0948 73.5341V77H95.2567V73.5909C95.2567 73.1577 95.1443 72.8227 94.9194 72.5859C94.6968 72.3468 94.3879 72.2273 93.9925 72.2273C93.7179 72.2273 93.4717 72.2853 93.2539 72.4013C93.0384 72.5173 92.868 72.6866 92.7425 72.9091C92.6194 73.1316 92.5578 73.4015 92.5578 73.7188ZM98.1388 77.0568C97.9636 77.0568 97.8133 76.9941 97.6878 76.8686C97.5623 76.7431 97.4996 76.5928 97.4996 76.4176C97.4996 76.2424 97.5623 76.0921 97.6878 75.9666C97.8133 75.8411 97.9636 75.7784 98.1388 75.7784C98.314 75.7784 98.4643 75.8411 98.5898 75.9666C98.7152 76.0921 98.778 76.2424 98.778 76.4176C98.778 76.5336 98.7484 76.6402 98.6892 76.7372C98.6324 76.8343 98.5554 76.9124 98.4584 76.9716C98.3637 77.0284 98.2571 77.0568 98.1388 77.0568ZM103.008 77V69.7273H103.889V76.2188H107.269V77H103.008ZM110.635 77.1136C110.143 77.1136 109.711 76.9964 109.339 76.7621C108.97 76.5277 108.681 76.1998 108.473 75.7784C108.267 75.357 108.164 74.8646 108.164 74.3011C108.164 73.733 108.267 73.237 108.473 72.8132C108.681 72.3894 108.97 72.0604 109.339 71.826C109.711 71.5916 110.143 71.4744 110.635 71.4744C111.128 71.4744 111.559 71.5916 111.928 71.826C112.3 72.0604 112.588 72.3894 112.794 72.8132C113.003 73.237 113.107 73.733 113.107 74.3011C113.107 74.8646 113.003 75.357 112.794 75.7784C112.588 76.1998 112.3 76.5277 111.928 76.7621C111.559 76.9964 111.128 77.1136 110.635 77.1136ZM110.635 76.3608C111.009 76.3608 111.317 76.2649 111.559 76.0732C111.8 75.8814 111.979 75.6293 112.095 75.3168C112.211 75.0043 112.269 74.6657 112.269 74.3011C112.269 73.9366 112.211 73.5968 112.095 73.282C111.979 72.9671 111.8 72.7126 111.559 72.5185C111.317 72.3243 111.009 72.2273 110.635 72.2273C110.261 72.2273 109.953 72.3243 109.712 72.5185C109.471 72.7126 109.292 72.9671 109.176 73.282C109.06 73.5968 109.002 73.9366 109.002 74.3011C109.002 74.6657 109.06 75.0043 109.176 75.3168C109.292 75.6293 109.471 75.8814 109.712 76.0732C109.953 76.2649 110.261 76.3608 110.635 76.3608ZM116.502 77.1136C116.01 77.1136 115.578 76.9964 115.206 76.7621C114.837 76.5277 114.548 76.1998 114.339 75.7784C114.133 75.357 114.031 74.8646 114.031 74.3011C114.031 73.733 114.133 73.237 114.339 72.8132C114.548 72.3894 114.837 72.0604 115.206 71.826C115.578 71.5916 116.01 71.4744 116.502 71.4744C116.995 71.4744 117.425 71.5916 117.795 71.826C118.166 72.0604 118.455 72.3894 118.661 72.8132C118.87 73.237 118.974 73.733 118.974 74.3011C118.974 74.8646 118.87 75.357 118.661 75.7784C118.455 76.1998 118.166 76.5277 117.795 76.7621C117.425 76.9964 116.995 77.1136 116.502 77.1136ZM116.502 76.3608C116.876 76.3608 117.184 76.2649 117.425 76.0732C117.667 75.8814 117.846 75.6293 117.962 75.3168C118.078 75.0043 118.136 74.6657 118.136 74.3011C118.136 73.9366 118.078 73.5968 117.962 73.282C117.846 72.9671 117.667 72.7126 117.425 72.5185C117.184 72.3243 116.876 72.2273 116.502 72.2273C116.128 72.2273 115.82 72.3243 115.579 72.5185C115.337 72.7126 115.159 72.9671 115.043 73.282C114.927 73.5968 114.869 73.9366 114.869 74.3011C114.869 74.6657 114.927 75.0043 115.043 75.3168C115.159 75.6293 115.337 75.8814 115.579 76.0732C115.82 76.2649 116.128 76.3608 116.502 76.3608ZM120.934 75.0114L120.92 73.9744H121.09L123.477 71.5455H124.514L121.971 74.1165H121.9L120.934 75.0114ZM120.153 77V69.7273H120.991V77H120.153ZM123.619 77L121.488 74.3011L122.085 73.7188L124.684 77H123.619ZM129.356 72.767L128.603 72.9801C128.556 72.8546 128.486 72.7327 128.394 72.6143C128.304 72.4936 128.181 72.3942 128.024 72.3161C127.868 72.2379 127.668 72.1989 127.424 72.1989C127.09 72.1989 126.812 72.2758 126.59 72.4297C126.37 72.5812 126.259 72.7741 126.259 73.0085C126.259 73.2169 126.335 73.3814 126.487 73.5021C126.638 73.6229 126.875 73.7235 127.197 73.804L128.007 74.0028C128.494 74.1212 128.858 74.3023 129.097 74.5462C129.336 74.7876 129.456 75.099 129.456 75.4801C129.456 75.7926 129.366 76.072 129.186 76.3182C129.008 76.5644 128.759 76.7585 128.44 76.9006C128.12 77.0426 127.749 77.1136 127.325 77.1136C126.768 77.1136 126.308 76.9929 125.943 76.7514C125.579 76.5099 125.348 76.1572 125.251 75.6932L126.046 75.4943C126.122 75.7879 126.265 76.008 126.476 76.1548C126.689 76.3016 126.967 76.375 127.311 76.375C127.701 76.375 128.011 76.2921 128.241 76.1264C128.473 75.9583 128.589 75.7571 128.589 75.5227C128.589 75.3333 128.523 75.1747 128.39 75.0469C128.258 74.9167 128.054 74.8196 127.779 74.7557L126.87 74.5426C126.371 74.4242 126.004 74.2408 125.769 73.9922C125.537 73.7412 125.421 73.4276 125.421 73.0511C125.421 72.7434 125.508 72.4711 125.681 72.2344C125.856 71.9976 126.094 71.8118 126.394 71.6768C126.697 71.5419 127.041 71.4744 127.424 71.4744C127.964 71.4744 128.388 71.5928 128.696 71.8295C129.006 72.0663 129.226 72.3788 129.356 72.767ZM134.168 69.7273V77H133.33V69.7273H134.168ZM137.819 77.1136C137.326 77.1136 136.894 76.9964 136.522 76.7621C136.153 76.5277 135.864 76.1998 135.656 75.7784C135.45 75.357 135.347 74.8646 135.347 74.3011C135.347 73.733 135.45 73.237 135.656 72.8132C135.864 72.3894 136.153 72.0604 136.522 71.826C136.894 71.5916 137.326 71.4744 137.819 71.4744C138.311 71.4744 138.742 71.5916 139.111 71.826C139.483 72.0604 139.772 72.3894 139.978 72.8132C140.186 73.237 140.29 73.733 140.29 74.3011C140.29 74.8646 140.186 75.357 139.978 75.7784C139.772 76.1998 139.483 76.5277 139.111 76.7621C138.742 76.9964 138.311 77.1136 137.819 77.1136ZM137.819 76.3608C138.193 76.3608 138.5 76.2649 138.742 76.0732C138.983 75.8814 139.162 75.6293 139.278 75.3168C139.394 75.0043 139.452 74.6657 139.452 74.3011C139.452 73.9366 139.394 73.5968 139.278 73.282C139.162 72.9671 138.983 72.7126 138.742 72.5185C138.5 72.3243 138.193 72.2273 137.819 72.2273C137.444 72.2273 137.137 72.3243 136.895 72.5185C136.654 72.7126 136.475 72.9671 136.359 73.282C136.243 73.5968 136.185 73.9366 136.185 74.3011C136.185 74.6657 136.243 75.0043 136.359 75.3168C136.475 75.6293 136.654 75.8814 136.895 76.0732C137.137 76.2649 137.444 76.3608 137.819 76.3608ZM143.685 77.1136C143.174 77.1136 142.734 76.9929 142.364 76.7514C141.995 76.5099 141.711 76.1773 141.512 75.7536C141.313 75.3298 141.214 74.8456 141.214 74.3011C141.214 73.7472 141.316 73.2583 141.519 72.8345C141.725 72.4084 142.012 72.0758 142.378 71.8366C142.748 71.5952 143.179 71.4744 143.671 71.4744C144.055 71.4744 144.4 71.5455 144.708 71.6875C145.016 71.8295 145.268 72.0284 145.464 72.2841C145.661 72.5398 145.783 72.8381 145.83 73.179H144.992C144.928 72.9304 144.786 72.7102 144.566 72.5185C144.348 72.3243 144.055 72.2273 143.685 72.2273C143.359 72.2273 143.072 72.3125 142.826 72.483C142.582 72.651 142.392 72.889 142.254 73.1967C142.119 73.5021 142.052 73.8608 142.052 74.2727C142.052 74.6941 142.118 75.0611 142.251 75.3736C142.386 75.6861 142.575 75.9287 142.819 76.1016C143.065 76.2744 143.354 76.3608 143.685 76.3608C143.903 76.3608 144.101 76.3229 144.278 76.2472C144.456 76.1714 144.606 76.0625 144.729 75.9205C144.852 75.7784 144.94 75.608 144.992 75.4091H145.83C145.783 75.7311 145.666 76.0211 145.479 76.2791C145.294 76.5348 145.049 76.7384 144.744 76.8899C144.441 77.0391 144.088 77.1136 143.685 77.1136ZM147.737 75.0114L147.722 73.9744H147.893L150.279 71.5455H151.316L148.774 74.1165H148.702L147.737 75.0114ZM146.955 77V69.7273H147.793V77H146.955ZM150.421 77L148.291 74.3011L148.887 73.7188L151.487 77H150.421ZM154.357 77.1136C153.832 77.1136 153.378 76.9976 152.997 76.7656C152.618 76.5312 152.326 76.2045 152.12 75.7855C151.916 75.3641 151.814 74.8741 151.814 74.3153C151.814 73.7566 151.916 73.2642 152.12 72.8381C152.326 72.4096 152.612 72.0758 152.979 71.8366C153.349 71.5952 153.779 71.4744 154.272 71.4744C154.556 71.4744 154.837 71.5218 155.113 71.6165C155.39 71.7112 155.643 71.8651 155.87 72.0781C156.097 72.2888 156.278 72.5682 156.413 72.9162C156.548 73.2642 156.616 73.6927 156.616 74.2017V74.5568H152.411V73.8324H155.763C155.763 73.5246 155.702 73.25 155.579 73.0085C155.458 72.767 155.285 72.5765 155.06 72.4368C154.838 72.2971 154.575 72.2273 154.272 72.2273C153.938 72.2273 153.649 72.3101 153.405 72.4759C153.164 72.6392 152.978 72.8523 152.848 73.1151C152.718 73.3778 152.653 73.6596 152.653 73.9602V74.4432C152.653 74.8551 152.724 75.2043 152.866 75.4908C153.01 75.7749 153.21 75.9915 153.466 76.1406C153.721 76.2874 154.019 76.3608 154.357 76.3608C154.577 76.3608 154.776 76.33 154.954 76.2685C155.134 76.2045 155.289 76.1098 155.419 75.9844C155.549 75.8565 155.65 75.6979 155.721 75.5085L156.53 75.7358C156.445 76.0104 156.302 76.2519 156.101 76.4602C155.899 76.6662 155.651 76.8272 155.355 76.9432C155.059 77.0568 154.726 77.1136 154.357 77.1136ZM159.85 77.1136C159.396 77.1136 158.994 76.9988 158.646 76.7692C158.298 76.5372 158.026 76.2105 157.83 75.7891C157.633 75.3653 157.535 74.8646 157.535 74.2869C157.535 73.714 157.633 73.2169 157.83 72.7955C158.026 72.3741 158.299 72.0485 158.65 71.8189C159 71.5893 159.405 71.4744 159.864 71.4744C160.219 71.4744 160.5 71.5336 160.706 71.652C160.914 71.768 161.073 71.9006 161.182 72.0497C161.293 72.1965 161.379 72.3172 161.441 72.4119H161.512V69.7273H162.35V77H161.54V76.1619H161.441C161.379 76.2614 161.292 76.3868 161.178 76.5384C161.065 76.6875 160.902 76.8213 160.692 76.9396C160.481 77.0556 160.201 77.1136 159.85 77.1136ZM159.964 76.3608C160.3 76.3608 160.584 76.2732 160.816 76.098C161.048 75.9205 161.224 75.6754 161.345 75.3629C161.466 75.0481 161.526 74.6847 161.526 74.2727C161.526 73.8655 161.467 73.5092 161.349 73.2038C161.23 72.8961 161.055 72.657 160.823 72.4865C160.591 72.3137 160.305 72.2273 159.964 72.2273C159.609 72.2273 159.313 72.3184 159.076 72.5007C158.842 72.6806 158.665 72.9257 158.547 73.2358C158.431 73.5436 158.373 73.8892 158.373 74.2727C158.373 74.661 158.432 75.0137 158.55 75.331C158.671 75.6458 158.849 75.8968 159.083 76.0838C159.32 76.2685 159.613 76.3608 159.964 76.3608ZM167.026 73.4915V74.2727H163.845V73.4915H167.026ZM168.401 77V71.5455H169.239V77H168.401ZM168.827 70.6364C168.664 70.6364 168.523 70.5807 168.405 70.4695C168.289 70.3582 168.231 70.2244 168.231 70.0682C168.231 69.9119 168.289 69.7782 168.405 69.6669C168.523 69.5556 168.664 69.5 168.827 69.5C168.991 69.5 169.13 69.5556 169.246 69.6669C169.365 69.7782 169.424 69.9119 169.424 70.0682C169.424 70.2244 169.365 70.3582 169.246 70.4695C169.13 70.5807 168.991 70.6364 168.827 70.6364ZM171.512 73.7188V77H170.674V71.5455H171.484V72.3977H171.555C171.683 72.1207 171.877 71.8982 172.137 71.7301C172.398 71.5597 172.734 71.4744 173.146 71.4744C173.515 71.4744 173.838 71.5502 174.115 71.7017C174.392 71.8509 174.608 72.0781 174.761 72.3835C174.915 72.6866 174.992 73.0701 174.992 73.5341V77H174.154V73.5909C174.154 73.1624 174.043 72.8286 173.82 72.5895C173.598 72.348 173.292 72.2273 172.904 72.2273C172.637 72.2273 172.398 72.2853 172.187 72.4013C171.979 72.5173 171.814 72.6866 171.693 72.9091C171.573 73.1316 171.512 73.4015 171.512 73.7188ZM181.508 71.5455V72.2557H178.682V71.5455H181.508ZM179.506 70.2386H180.344V75.4375C180.344 75.6742 180.378 75.8518 180.447 75.9702C180.518 76.0862 180.608 76.1643 180.716 76.2045C180.828 76.2424 180.945 76.2614 181.068 76.2614C181.16 76.2614 181.236 76.2566 181.295 76.2472C181.354 76.2353 181.402 76.2259 181.437 76.2188L181.608 76.9716C181.551 76.9929 181.472 77.0142 181.37 77.0355C181.268 77.0592 181.139 77.071 180.983 77.071C180.746 77.071 180.514 77.0201 180.287 76.9183C180.062 76.8165 179.875 76.6615 179.726 76.4531C179.579 76.2448 179.506 75.982 179.506 75.6648V70.2386ZM184.826 77.1136C184.334 77.1136 183.902 76.9964 183.53 76.7621C183.161 76.5277 182.872 76.1998 182.664 75.7784C182.458 75.357 182.355 74.8646 182.355 74.3011C182.355 73.733 182.458 73.237 182.664 72.8132C182.872 72.3894 183.161 72.0604 183.53 71.826C183.902 71.5916 184.334 71.4744 184.826 71.4744C185.319 71.4744 185.75 71.5916 186.119 71.826C186.491 72.0604 186.779 72.3894 186.985 72.8132C187.194 73.237 187.298 73.733 187.298 74.3011C187.298 74.8646 187.194 75.357 186.985 75.7784C186.779 76.1998 186.491 76.5277 186.119 76.7621C185.75 76.9964 185.319 77.1136 184.826 77.1136ZM184.826 76.3608C185.2 76.3608 185.508 76.2649 185.75 76.0732C185.991 75.8814 186.17 75.6293 186.286 75.3168C186.402 75.0043 186.46 74.6657 186.46 74.3011C186.46 73.9366 186.402 73.5968 186.286 73.282C186.17 72.9671 185.991 72.7126 185.75 72.5185C185.508 72.3243 185.2 72.2273 184.826 72.2273C184.452 72.2273 184.144 72.3243 183.903 72.5185C183.662 72.7126 183.483 72.9671 183.367 73.282C183.251 73.5968 183.193 73.9366 183.193 74.3011C183.193 74.6657 183.251 75.0043 183.367 75.3168C183.483 75.6293 183.662 75.8814 183.903 76.0732C184.144 76.2649 184.452 76.3608 184.826 76.3608ZM191.19 77V71.5455H191.999V72.3977H192.07C192.184 72.1065 192.367 71.8804 192.621 71.7195C192.874 71.5561 193.178 71.4744 193.533 71.4744C193.893 71.4744 194.193 71.5561 194.432 71.7195C194.673 71.8804 194.862 72.1065 194.997 72.3977H195.053C195.193 72.116 195.403 71.8923 195.682 71.7266C195.961 71.5585 196.296 71.4744 196.687 71.4744C197.175 71.4744 197.573 71.6271 197.884 71.9325C198.194 72.2356 198.349 72.7079 198.349 73.3494V77H197.511V73.3494C197.511 72.947 197.401 72.6593 197.18 72.4865C196.96 72.3137 196.701 72.2273 196.403 72.2273C196.019 72.2273 195.722 72.3433 195.511 72.5753C195.301 72.8049 195.195 73.0961 195.195 73.4489V77H194.343V73.2642C194.343 72.9541 194.242 72.7043 194.041 72.5149C193.84 72.3232 193.581 72.2273 193.264 72.2273C193.046 72.2273 192.842 72.2853 192.653 72.4013C192.466 72.5173 192.314 72.6783 192.198 72.8842C192.085 73.0878 192.028 73.3234 192.028 73.5909V77H191.19ZM202.068 77.1136C201.542 77.1136 201.089 76.9976 200.708 76.7656C200.329 76.5312 200.037 76.2045 199.831 75.7855C199.627 75.3641 199.525 74.8741 199.525 74.3153C199.525 73.7566 199.627 73.2642 199.831 72.8381C200.037 72.4096 200.323 72.0758 200.69 71.8366C201.06 71.5952 201.49 71.4744 201.983 71.4744C202.267 71.4744 202.547 71.5218 202.824 71.6165C203.101 71.7112 203.354 71.8651 203.581 72.0781C203.808 72.2888 203.989 72.5682 204.124 72.9162C204.259 73.2642 204.327 73.6927 204.327 74.2017V74.5568H200.122V73.8324H203.474C203.474 73.5246 203.413 73.25 203.29 73.0085C203.169 72.767 202.996 72.5765 202.771 72.4368C202.549 72.2971 202.286 72.2273 201.983 72.2273C201.649 72.2273 201.36 72.3101 201.116 72.4759C200.875 72.6392 200.689 72.8523 200.559 73.1151C200.429 73.3778 200.364 73.6596 200.364 73.9602V74.4432C200.364 74.8551 200.435 75.2043 200.577 75.4908C200.721 75.7749 200.921 75.9915 201.177 76.1406C201.432 76.2874 201.73 76.3608 202.068 76.3608C202.288 76.3608 202.487 76.33 202.665 76.2685C202.845 76.2045 203 76.1098 203.13 75.9844C203.26 75.8565 203.361 75.6979 203.432 75.5085L204.241 75.7358C204.156 76.0104 204.013 76.2519 203.812 76.4602C203.61 76.6662 203.362 76.8272 203.066 76.9432C202.77 77.0568 202.437 77.1136 202.068 77.1136ZM206.112 77.0568C205.937 77.0568 205.787 76.9941 205.661 76.8686C205.536 76.7431 205.473 76.5928 205.473 76.4176C205.473 76.2424 205.536 76.0921 205.661 75.9666C205.787 75.8411 205.937 75.7784 206.112 75.7784C206.287 75.7784 206.438 75.8411 206.563 75.9666C206.689 76.0921 206.751 76.2424 206.751 76.4176C206.751 76.5336 206.722 76.6402 206.663 76.7372C206.606 76.8343 206.529 76.9124 206.432 76.9716C206.337 77.0284 206.231 77.0568 206.112 77.0568Z" fill="#191919"/>
</g>
<defs>
<filter id="filter0_d_37_246" x="0" y="0" width="272" height="118" filterUnits="userSpaceOnUse" color-interpolation-filters="sRGB">
<feFlood flood-opacity="0" result="BackgroundImageFix"/>
<feColorMatrix in="SourceAlpha" type="matrix" values="0 0 0 0 0 0 0 0 0 0 0 0 0 0 0 0 0 0 127 0" result="hardAlpha"/>
<feOffset dy="10"/>
<feGaussianBlur stdDeviation="5"/>
<feComposite in2="hardAlpha" operator="out"/>
<feColorMatrix type="matrix" values="0 0 0 0 0.636869 0 0 0 0 0.634405 0 0 0 0 0.634405 0 0 0 0.2 0"/>
<feBlend mode="normal" in2="BackgroundImageFix" result="effect1_dropShadow_37_246"/>
<feBlend mode="normal" in="SourceGraphic" in2="effect1_dropShadow_37_246" result="shape"/>
</filter>
</defs>
</svg>
