<svg width="131" height="131" viewBox="0 0 131 131" fill="none" xmlns="http://www.w3.org/2000/svg">
<g clip-path="url(#clip0_152_460)">
<path d="M96.7772 99.2048C95.1457 100.954 92.7066 100.155 91.0588 99.3569C86.1206 96.9967 82.9506 92.7999 79.3761 88.4254C81.4549 93.4052 83.7455 98.1017 83.6898 103.545C83.669 105.566 83.0862 108.127 81.0094 108.793C79.1622 109.376 77.161 107.831 75.9187 106.419C72.6543 102.717 71.6334 98.3361 69.6874 93.5152C69.0485 99.9903 70.0734 104.584 66.1691 110.15C65.7087 110.801 64.2073 111.539 63.4825 111.54C62.7576 111.541 61.3459 110.82 60.8765 110.141C57.2983 104.929 58.5066 97.8937 58.7436 92.4115C56.8703 96.9833 51.6928 108.929 46.1638 107.314C44.1149 106.718 43.6185 104.05 43.7554 102.114C44.1049 96.9493 46.4976 92.6666 48.8602 88.0034C43.7349 92.1251 40.7179 96.6994 33.9447 97.5628C33.2153 97.6701 31.7377 97.0859 31.2667 96.5996C30.7957 96.1132 30.3775 94.7115 30.5048 93.9192C31.5108 87.5667 37.2208 83.9165 41.7233 79.5876C36.7268 81.6536 32.0315 83.8261 26.6021 83.5986C24.5245 83.5132 21.9562 82.6279 21.7675 80.2257C21.3546 74.8543 33.0733 71.1047 37.4947 69.5785C33.1416 69.3722 29.3062 69.4947 25.276 68.4316C23.0079 67.8323 19.0624 66.0415 19.1378 63.2187C19.2236 60.004 24.8793 58.5325 28.0135 58.3257C31.4743 58.1001 34.6109 58.4519 38.1405 58.635L32.7278 56.174C29.2914 54.6053 22.5111 50.4013 23.142 46.4194C23.2785 45.5677 24.7215 44.0291 25.6454 43.8838C32.4496 42.7625 37.701 46.4931 43.3469 49.0974C39.7843 46.1399 30.3011 36.0108 33.7706 31.583C35.2065 29.7448 37.7511 30.4095 39.5438 31.2404C44.3874 33.4834 47.4407 37.6086 50.9586 41.6015C48.9945 36.4273 46.7843 32.0269 46.9953 26.8362C47.0704 24.7914 47.5949 22.1947 49.9072 21.7718C55.6242 20.7286 59.6424 33.3019 61.1237 37.6434C61.1905 32.4063 61.008 27.5506 63.0797 22.8479C63.8976 21.0023 65.3686 18.8133 67.6073 19.1719C69.6341 19.5078 70.8824 21.8573 71.4629 23.8114C72.8451 28.4478 72.2138 32.9017 72.0362 37.9343C73.8714 33.6269 78.9635 21.8099 84.3332 23.2649C86.4888 23.8526 87.0158 26.2765 86.943 28.2682C86.7153 33.6909 84.0883 38.1628 81.6588 42.9892C86.4898 38.7547 90.1035 33.9143 96.5962 33.0784C97.3718 32.9797 98.6773 33.3901 99.1772 33.8245C99.7411 34.315 100.369 35.9454 100.222 36.7302C98.9228 43.4022 92.9123 47.5445 87.858 51.7159C92.7927 49.3878 97.7183 47.1192 103.283 46.9935C105.439 46.9428 108.313 47.5357 108.867 49.9475C109.36 52.084 107.243 54.2777 105.526 55.5581C101.679 58.4065 97.3971 59.4735 92.8241 61.126C97.7727 61.2456 102.305 61.0077 106.88 62.6801C108.831 63.3917 111.248 64.8621 111.504 66.9216C111.797 69.2287 109.423 70.6263 107.499 71.2791C102.647 72.9326 97.8563 72.2347 92.641 71.9769C98.6408 75.0092 103.047 75.8296 107.082 81.7074C107.52 82.3386 107.645 83.9201 107.43 84.5888C107.191 85.343 105.883 86.5285 105.005 86.6824C98.2967 87.8944 93.1261 84.1408 87.4693 81.6358C90.8616 84.3796 100.675 95.022 96.7905 99.2054L96.7772 99.2048Z" fill="#FAB938"/>
</g>
<defs>
<clipPath id="clip0_152_460">
<rect width="92.479" height="92.479" fill="white" transform="translate(0 62.4701) rotate(-42.4934)"/>
</clipPath>
</defs>
</svg>
