<svg width="76" height="76" viewBox="0 0 76 76" fill="none" xmlns="http://www.w3.org/2000/svg">
<path d="M47.9364 61.9355C46.4293 66.5769 43.4065 75.9472 38.0529 75.9998C32.6994 76.0523 29.5627 66.7433 28.0994 61.9617C23.8236 64.1598 15.2632 68.6173 11.2415 65.0093C7.19354 61.375 11.8198 52.0484 14.0804 47.9062C9.33143 46.5138 0.0087619 43.4137 0 38.0104C0 32.7735 9.41029 29.4282 14.1067 28.1409C11.6971 23.7096 7.43886 15.1887 11.04 11.2217C14.6061 7.28962 24.0427 11.9047 28.0732 14.059C29.6591 9.26001 31.9722 1.81627 36.8175 0.213672C42.5916 -1.69543 46.736 9.69789 47.875 14.1203C52.2472 11.8172 60.9478 7.41221 64.7943 11.1166C68.7196 14.8997 64.1897 24.0512 61.9029 28.062L67.0023 29.8661C69.7623 30.8469 72.3821 32.3531 74.4061 34.3936C76.2461 36.2502 76.5878 38.965 74.9318 41.0229C71.7775 44.955 66.8709 46.2335 61.9642 47.9237C64.0933 52.0747 69.2015 61.8391 64.2686 65.3771C60.3082 68.2145 52.3962 64.3613 47.9276 61.9442L47.9364 61.9355Z" fill="#1A87D5"/>
</svg>
