<svg width="57" height="54" viewBox="0 0 57 54" fill="none" xmlns="http://www.w3.org/2000/svg">
<path d="M12.8161 40.9243C8.74543 37.2186 6.18359 32.1424 5.6204 26.6666C5.05721 21.1906 6.5322 15.6992 9.76333 11.2425C12.9945 6.78578 17.755 3.67641 23.1346 2.50901C28.5141 1.34163 34.1352 2.19813 38.9231 4.91471" stroke="#196EB3" stroke-width="4" stroke-linecap="round" stroke-linejoin="round"/>
<path d="M4.96685 40.7653C2.12313 45.7471 1.17131 49.6128 2.77722 51.2212C5.21536 53.657 12.844 50.2131 21.6776 43.208" stroke="#196EB3" stroke-width="4" stroke-linecap="round" stroke-linejoin="round"/>
<path d="M31.7903 41.4377L23.3975 33.0449L42.0517 14.3906C43.5732 12.8698 45.4803 11.7919 47.5681 11.2726L52.3668 10.0676C52.6983 9.98507 53.0453 9.98965 53.3742 10.0809C53.7031 10.1722 54.0029 10.347 54.2443 10.5885C54.4859 10.8299 54.6605 11.1296 54.7519 11.4586C54.8432 11.7876 54.8479 12.1346 54.7652 12.4659L53.5649 17.2672C53.0434 19.3544 51.964 21.2604 50.4422 22.7812L31.7903 41.4377Z" stroke="#196EB3" stroke-width="4" stroke-linecap="round" stroke-linejoin="round"/>
<path d="M23.3972 33.0457L16.5235 30.7552C16.3629 30.7019 16.2187 30.6087 16.1045 30.4841C15.9902 30.3592 15.9099 30.2073 15.8711 30.0427C15.8323 29.8781 15.8364 29.7065 15.8829 29.5438C15.9293 29.3811 16.0167 29.2332 16.1367 29.1142L18.5327 26.7181C19.5742 25.6767 20.8852 24.9458 22.3187 24.6075C23.7522 24.2692 25.2517 24.3368 26.6488 24.8028L30.3998 26.05L23.3972 33.0457Z" stroke="#196EB3" stroke-width="4" stroke-linecap="round" stroke-linejoin="round"/>
<path d="M31.7881 41.4384L34.0785 48.3144C34.1316 48.4749 34.225 48.6193 34.3497 48.7334C34.4743 48.8478 34.6262 48.928 34.7908 48.9668C34.9554 49.0055 35.1272 49.0015 35.2899 48.955C35.4524 48.9086 35.6005 48.8212 35.7196 48.7013L38.1156 46.3052C39.1571 45.2637 39.8877 43.9528 40.226 42.5193C40.5643 41.0858 40.4967 39.5863 40.0309 38.1889L38.7838 34.438L31.7881 41.4384Z" stroke="#196EB3" stroke-width="4" stroke-linecap="round" stroke-linejoin="round"/>
</svg>
