<svg width="171" height="171" viewBox="0 0 171 171" fill="none" xmlns="http://www.w3.org/2000/svg">
<path d="M94.6534 143.532C89.1523 153.223 77.287 172.396 65.4406 169.862C53.3179 167.271 51.2602 144.741 50.4903 133.335C39.8004 136.059 18.4155 141.498 11.3096 131.386C4.20377 121.273 19.338 102.749 26.5349 94.6964C16.6709 89.113 -2.51736 77.3585 0.274373 65.2844C2.98024 53.579 25.7288 51.0223 36.8746 50.588C33.8028 39.5996 28.7389 18.0226 38.844 11.2274C49.0235 4.38594 67.3641 19.4756 75.3889 26.4322C80.9599 16.6236 93.1259 -2.53604 104.878 0.279687C116.471 3.05124 119.015 25.7719 119.495 36.842C130.464 33.9854 152.129 28.6754 158.802 38.9201C165.582 49.3382 150.843 67.4392 143.391 75.3752C152.644 80.456 172.657 92.8549 169.842 104.818C167.031 116.732 144.532 118.944 133.348 119.511C135.966 130.082 142.239 154.357 129.428 159.752C118.969 164.154 102.779 150.633 94.6585 143.541L94.6534 143.532Z" fill="#FACB64"/>
</svg>
