<svg width="190" height="190" viewBox="0 0 190 190" fill="none" xmlns="http://www.w3.org/2000/svg">
<g clip-path="url(#clip0_152_507)">
<path d="M140.61 144.137C138.239 146.679 134.695 145.518 132.301 144.358C125.126 140.929 120.521 134.831 115.327 128.476C118.348 135.711 121.676 142.535 121.595 150.444C121.564 153.38 120.718 157.1 117.7 158.068C115.017 158.915 112.109 156.67 110.304 154.619C105.561 149.24 104.078 142.875 101.25 135.871C100.322 145.279 101.811 151.953 96.1385 160.039C95.4697 160.986 93.2882 162.058 92.2351 162.06C91.182 162.061 89.1308 161.014 88.4488 160.027C83.25 152.454 85.0056 142.232 85.3499 134.267C82.6282 140.91 75.1057 158.266 67.0725 155.92C64.0957 155.054 63.3744 151.176 63.5733 148.364C64.0811 140.86 67.5575 134.638 70.9901 127.863C63.5435 133.851 59.16 140.497 49.3191 141.752C48.2593 141.907 46.1126 141.059 45.4282 140.352C44.7438 139.645 44.1363 137.609 44.3213 136.458C45.7828 127.228 54.079 121.925 60.6209 115.635C53.3613 118.637 46.5394 121.793 38.6509 121.463C35.6324 121.339 31.9008 120.052 31.6266 116.562C31.0267 108.758 48.0531 103.31 54.4769 101.093C48.1522 100.793 42.5798 100.971 36.7243 99.4263C33.4288 98.5556 27.6963 95.9537 27.806 91.8524C27.9305 87.1817 36.1479 85.0437 40.7016 84.7432C45.7298 84.4155 50.2871 84.9267 55.4153 85.1927L47.5511 81.6171C42.5582 79.3378 32.7071 73.2297 33.6237 67.4444C33.8221 66.2069 35.9185 63.9714 37.2609 63.7604C47.1469 62.1311 54.7768 67.5514 62.9798 71.3353C57.8036 67.0383 44.0253 52.3215 49.0662 45.8882C51.1525 43.2175 54.8496 44.1834 57.4542 45.3906C64.4915 48.6494 68.9278 54.643 74.039 60.4443C71.1854 52.9267 67.974 46.5333 68.2806 38.9916C68.3897 36.0207 69.1517 32.2478 72.5113 31.6335C80.8177 30.1178 86.6557 48.3857 88.8081 54.6935C88.905 47.0845 88.6399 40.0295 91.65 33.197C92.8382 30.5154 94.9755 27.3349 98.2281 27.8559C101.173 28.344 102.987 31.7576 103.83 34.5969C105.838 41.333 104.921 47.8042 104.663 55.1163C107.329 48.8579 114.728 31.6888 122.53 33.8028C125.661 34.6566 126.427 38.1784 126.321 41.0721C125.99 48.9509 122.174 55.4482 118.644 62.4605C125.663 56.3082 130.913 49.2755 140.347 48.0609C141.474 47.9176 143.37 48.5138 144.097 49.145C144.916 49.8577 145.828 52.2265 145.615 53.3668C143.727 63.0606 134.994 69.079 127.651 75.1397C134.821 71.7572 141.977 68.4611 150.061 68.2785C153.195 68.2048 157.37 69.0662 158.175 72.5704C158.891 75.6745 155.816 78.8618 153.32 80.7221C147.731 84.8606 141.51 86.4109 134.866 88.8118C142.056 88.9857 148.64 88.64 155.289 91.0699C158.123 92.1038 161.634 94.2401 162.007 97.2323C162.432 100.584 158.983 102.615 156.188 103.564C149.138 105.966 142.178 104.952 134.6 104.577C143.317 108.983 149.719 110.175 155.582 118.715C156.218 119.632 156.399 121.93 156.087 122.901C155.74 123.997 153.839 125.72 152.564 125.943C142.817 127.704 135.305 122.251 127.086 118.611C132.015 122.597 146.273 138.06 140.629 144.138L140.61 144.137Z" fill="#79C5EF"/>
</g>
<defs>
<clipPath id="clip0_152_507">
<rect width="134.364" height="134.364" fill="white" transform="translate(0 90.7642) rotate(-42.4934)"/>
</clipPath>
</defs>
</svg>
