<svg width="83" height="88" viewBox="0 0 83 88" fill="none" xmlns="http://www.w3.org/2000/svg">
<path d="M56.2391 82.0725C47.7691 89.8325 35.3291 89.9025 26.6891 82.5625C23.6491 79.9725 20.7191 77.4825 16.7491 76.4125C4.65911 73.1625 -2.40089 61.0925 0.749108 48.9525C1.59911 45.6925 1.5791 42.2025 0.729104 38.9125C-2.3009 27.1025 4.37911 15.1925 16.1091 11.7525C19.9691 10.6225 23.0691 8.6925 26.0591 5.9325C34.6091 -1.9575 47.7791 -2.0075 56.3291 5.9625C59.4191 8.8425 62.6691 10.6825 66.6791 11.9125C78.5691 15.5625 84.8191 27.8525 81.5091 39.6825C80.6691 42.6925 80.8491 45.9625 81.6391 48.9425C84.6791 60.5325 78.2991 72.4725 66.7791 76.0025C62.7491 77.2425 59.5391 79.0625 56.2591 82.0725H56.2391Z" fill="#8CCFF3"/>
</svg>
