<svg width="87" height="87" viewBox="0 0 87 87" fill="none" xmlns="http://www.w3.org/2000/svg">
<path d="M54.71 70.724C52.99 76.024 49.54 86.724 43.43 86.784C37.32 86.844 33.74 76.214 32.07 70.754C27.19 73.264 17.42 78.354 12.83 74.234C8.21002 70.084 13.49 59.434 16.07 54.704C10.65 53.114 0.01 49.574 0 43.404C0 37.424 10.74 33.604 16.1 32.134C13.35 27.074 8.49001 17.344 12.6 12.814C16.67 8.324 27.44 13.594 32.04 16.054C33.85 10.574 36.49 2.07399 42.02 0.243991C48.61 -1.93601 53.34 11.074 54.64 16.124C59.63 13.494 69.56 8.46399 73.95 12.694C78.43 17.014 73.26 27.464 70.65 32.044L76.47 34.104C79.62 35.224 82.61 36.944 84.92 39.274C87.02 41.394 87.41 44.494 85.52 46.844C81.92 51.334 76.32 52.794 70.72 54.724C73.15 59.464 78.98 70.614 73.35 74.654C68.83 77.894 59.8 73.494 54.7 70.734L54.71 70.724Z" fill="#D0EBFB"/>
</svg>
